<?xml version="1.0" encoding="utf-8"?>
<!-- Generator: Adobe Illustrator 25.3.0, SVG Export Plug-In . SVG Version: 6.00 Build 0)  -->
<svg version="1.1" id="Capa_1" xmlns="http://www.w3.org/2000/svg" xmlns:xlink="http://www.w3.org/1999/xlink" x="0px" y="0px"
	 viewBox="0 0 258.8 958.1" style="enable-background:new 0 0 258.8 958.1;" xml:space="preserve">
<style type="text/css">
	.st0{fill:#E52521;}
	.st1{fill:#020203;}
	.st2{fill:#010202;}
	.st3{fill:none;stroke:#FFFFFF;stroke-width:11.3386;stroke-miterlimit:10;}
	.st4{fill:#FFFFFF;}
	.st5{font-family:'ReggaeOne-Regular';}
	.st6{font-size:32.1509px;glyph-orientation-vertical:0;writing-mode:tb;}
	.st7{fill:#020304;}
</style>
<g>
	<circle class="st0" cx="128.3" cy="79.5" r="32.7"/>
	<path class="st1" d="M128.3,48.3c17.2,0,31.2,14,31.2,31.2s-14,31.2-31.2,31.2s-31.2-14-31.2-31.2S111.1,48.3,128.3,48.3
		 M128.3,45.3C109.4,45.3,94,60.6,94,79.5c0,18.9,15.3,34.3,34.3,34.3s34.3-15.3,34.3-34.3C162.6,60.6,147.2,45.3,128.3,45.3
		L128.3,45.3z"/>
</g>
<path class="st2" d="M102.6,35.3c-24.4,14.2-32.8,45.5-18.6,70c14.2,24.5,45.5,32.8,70,18.6s32.8-45.5,18.6-70
	C158.4,29.4,127,21.1,102.6,35.3z M144.5,107.4c-15.4,8.9-35.1,3.7-44.1-11.7c-8.9-15.4-3.7-35.1,11.7-44s35.1-3.7,44.1,11.7
	C165.1,78.8,159.9,98.5,144.5,107.4z"/>
<line class="st3" x1="216.8" y1="551.3" x2="195.8" y2="641.8"/>
<line class="st3" x1="54.9" y1="608.6" x2="68.9" y2="669.4"/>
<polygon class="st2" points="110.4,368.3 28.3,493.6 128.9,929.7 230.4,492.8 155.3,363.3 "/>
<polygon class="st4" points="43.2,510.5 85.1,707.7 93.4,712.9 50.6,517.3 "/>
<path class="st4" d="M94.3,746.9c-0.6,1.2,5.8,32.6,5.8,32.6l5.9,4.9l-5.5-30.6L94.3,746.9z"/>
<polygon class="st4" points="45.2,484.8 90.1,406.1 89.8,415.6 49,491.4 "/>
<polygon class="st4" points="33.8,495.5 129.4,524.2 226,493.3 130.1,513.7 "/>
<polygon class="st4" points="126.4,374.2 124.5,522.7 127.6,906.4 134.7,518.2 132.7,372.2 "/>
<polygon class="st2" points="110.4,372.2 109.7,124 151,121.8 155.3,363.3 "/>
<text transform="matrix(0.9964 8.477197e-02 -8.477197e-02 0.9964 169.7929 546.804)" class="st4 st5 st6">朴龍道場</text>
<path class="st7" d="M184.2,413.1c-3,1.7-6.1,3.4-9.2,5c-3.7,1.9-7.5,3.8-11.5,5.5c-4,1.7-8.2,3.3-12.5,4.7
	c-8.6,2.8-18,4.8-27.5,5.5c-4.9,0.3-9.2,0.4-15.1,0c-5.6-0.5-11.1-1.6-16.3-3.3c-6.2-2-11.9-4.7-17.1-7.9l31.5-48.1
	c0.7,0.2,1.4,0.4,2.1,0.6c1.3,0.3,2.5,0.3,3.7,0.3c0.8,0,3.3-0.3,5.2-0.6c4-0.7,7.9-2.1,12-4c6.9-3.3,14-8.6,21.5-15.2L184.2,413.1z
	"/>
<g>
	<path class="st1" d="M115.7,56.1c0,0-1-1.5,3.6-1.6c4.6-0.2,5.4-0.2,6.3-0.2c0.9,0,1.4,1.1,1.3,1.6c-0.2,0.5-1.2,1.7-1.7,1.8
		c-0.5,0-6.7,0.2-7.2,0S116,57,115.7,56.1z"/>
	<path class="st1" d="M130.6,53c0,0-0.3-0.4-0.9,0.2c-0.7,0.6-0.9,0.9-0.3,1.4c0.6,0.5,0.9,0.6,1,1.5c0.1,0.9,0.2,1.9,0.2,2.9
		c0,0-16,0.7-16.9,1c-0.8,0.3-0.8,1.6-0.3,2.1s1.5,1.5,2.2,1.5s4.1-0.4,4.1-0.4s0.3,11.6,0.3,12.6c0,0-1,0.7-1.6,0.5
		c0,0-0.6-5.5-1.5-8.5c0,0-1.9-0.9-3.5,0.5c0,0,2.2,6.5,2.2,8.5c0,0-1.7,0.6-2.9,0.2c-1.2-0.4-1.7,1-1.1,2s0.9,2.1,3.7,1.3
		c2.8-0.9,12.9-4.8,14.4-6.3s0.2-2.2-2-1.2c-2.1,1.1-4.8,2.2-5.2,2.2l-0.1-3.6c0,0,5.8-2.7,6.3-3.3s0.6-1.4,0.6-2.2
		c0-0.8-0.8-0.8-1.7-0.4s-5,2.7-5,2.5c0-0.2,0.1-5,0.1-5s6.8-0.7,7.5-0.7c0.8,0,1.1,0.1,1.1,1.5c0.1,1.4,0.2,17.4,16.2,16.8
		c1-0.1,2-2,1.5-2.7s-6.2-6.6-8.7-7.9c0,0,3.8,3.8,3.8,5.2c0,1.4-1.1,2.7-4.1,0.6s-5.5-4.2-6-13.4c0,0,1.9,0.4,2.4,0.1
		c0.5-0.3,2.1-1.7,2.1-2.1S137.8,59,137,59c-0.8,0-2.1,0.4-3.1,0.3c0,0,0-3.9,0-4.6C133.9,54,131.6,53.5,130.6,53z"/>
	<path class="st1" d="M140,54.3c0,0,1.6,2.4,1.6,4.6s-1,2.3-1.2,2.8c-0.2,0.5-0.3,1.6,1,0.9s3.4-1.9,3.5-4.7c0-1.6-2-3.8-4.3-3.9
		C140,53.9,140,54.3,140,54.3z"/>
	<path class="st1" d="M121.6,83.4c-0.1,0-1.5-0.4-1.8-0.9c-0.3-0.5-0.5-1,0.8-1.6c1.2-0.6,2.2-0.3,3.4-0.3c1.2,0,1.9,0.4,2.2,0.7
		c0.2,0.3,0.4,0.3,0.6,0.6c0.2,0.3,0.3,0.9-0.5,0.9c-0.8,0-2.3,0.2-3,0.5C122.5,83.7,121.6,83.4,121.6,83.4z"/>
	<path class="st1" d="M120.2,84.4c-0.3,0-6,0.5-6.6,0.8c-0.6,0.3-0.8,0.9-0.2,1.3c0.6,0.4,0.4,0.8,1.1,0.8s3-0.5,3.2,0
		c0.2,0.6-0.4,4-2.4,5.7c-2,1.7-1.8,1.5-2.4,1.9s0.5,0.9,1.1,0.8c0.6-0.1,1.3-0.7,1.9-1.1s1.1-0.1,1.1-0.1s-0.1,3.2-0.5,4.2
		c-0.4,1-1.1,2.9-1.1,3.8c0,0.8,0.5,1.5,1.3,0.8c0.8-0.7,2.7-3.4,2.9-4.1c0.2-0.7,0.1-5.4,0-5.8c0,0,1.6,1.2,2.2,1.3
		s0.5-0.9,0.2-1.4c-0.3-0.5-2-1.7-2.3-2.9c-0.3-1.2,0.1-3.2,0.1-3.2s3.6,0.3,4.5,0c0.8-0.3,1.4-0.8,1.2-1.4
		c-0.2-0.6-0.8-0.9-2.4-1.1S120.2,84.4,120.2,84.4z"/>
	<path class="st1" d="M142.6,87.6c-0.4-0.9-0.2-2.4,0.2-3.2s-0.1-0.7-1.2-0.7c-1.2,0-3.5,0.4-4.1,0c-0.6-0.5-0.4-1.6-0.5-1.9
		c-0.1-0.3-0.6-1.9-2.2-2c-0.6,0-0.5,1.9-0.6,2.9c-0.1,1-0.7,1-0.7,1s-4.5-0.1-4.9,0c-0.5,0-0.5,0-0.7,1.5c-0.2,1.5-0.5,7.4-0.2,8.4
		c0.3,1,0.8,0.4,1.1,0c0.3-0.4,0.7-1.5,1.1-1.5c0.4-0.1,3.6-0.1,3.9-0.1s0.2,1.6,0.3,4.7c0.1,3.1,0.7,6,1.4,7.5
		c0.6,1.5,1.3,3.2,1.6,1.1c0.3-2.1-0.3-6.7-0.4-7.4s-0.4-5.4,0.2-6.3c0,0,2.8,0.3,3.6,0.8c0.8,0.6,1,0.7,1.1,1.3s1.2,0.6,1.4-1
		C143.1,91,143,88.5,142.6,87.6z M133.4,89.6c-0.9,0-1.9,0-3,0c-1.1,0-0.5-0.4,0.2-1c0,0,2.5,0.1,2.7,0
		C133.7,88.5,134.3,89.6,133.4,89.6z M133.4,86.9c-0.4,0.2-3.5,0.1-3.6-0.2c-0.1-0.3,0.5-1.3,0.8-1.4c0.9-0.3,3.6,0.3,3.6,0.3
		S133.7,86.6,133.4,86.9z M137.2,85.5c0,0,2.1,0,2.5,0c0.4,0,0.8,0.6,0.8,0.6s-0.3,0.4-0.7,0.6c-0.4,0.2-2.7,0-3.1,0
		C136,86.6,137.2,85.5,137.2,85.5z M140,89.5c-0.4,0.1-3.4,0.1-3.4-0.2c0-0.3,0.8-0.6,0.8-0.6c1.3-0.4,3.3,0.1,3.3,0.3
		C140.7,89.1,140.5,89.3,140,89.5z"/>
</g>
</svg>
