<?xml version="1.0" encoding="utf-8"?>
<!-- Generator: Adobe Illustrator 25.3.0, SVG Export Plug-In . SVG Version: 6.00 Build 0)  -->
<svg version="1.1" id="Capa_1" xmlns="http://www.w3.org/2000/svg" xmlns:xlink="http://www.w3.org/1999/xlink" x="0px" y="0px"
	 viewBox="0 0 2423.7 1000" style="enable-background:new 0 0 2423.7 1000;" xml:space="preserve">
<style type="text/css">
	.st0{fill:#E30613;}
	.st1{font-family:'LEMONMILK-Bold';}
	.st2{font-size:239.6096px;}
	.st3{fill:#030405;}
	.st4{fill:#020203;}
	.st5{fill:#030304;}
</style>
<circle class="st0" cx="764.5" cy="155.6" r="36.4"/>
<text transform="matrix(1 0 0 1 859.5876 460.4208)"><tspan x="0" y="0" class="st1 st2">bokuryu</tspan><tspan x="0" y="287.5" class="st1 st2">dojo</tspan></text>
<path class="st3" d="M800.7,552.7c0,0-4.7-0.2-7.1,1.4c-0.9-2.7-1.7-5.5-2.2-7.6C794.2,546.7,799.8,547.9,800.7,552.7z"/>
<path class="st3" d="M825.5,589c0,0,1.4-12.6-10.3-14c-0.4-1.8-0.6-3.7-0.5-5.2c0.1-1.9,1-4.3,1.8-6.2
	C821.1,563.2,833.8,564.6,825.5,589z"/>
<path class="st3" d="M807.1,630.1c0.1-0.5,2.7-12.3-7.7-17.2c0.2-1.1,0.9-2.8,3-5.2c2-2.4,3.6-4.1,4.8-5.2
	C810,605.6,818.1,616.5,807.1,630.1z"/>
<path class="st3" d="M763.3,610.3c-0.2,0.4-3.5,7-12.3,5.3c-6.6-1.2-11.3-4.8-13.2-6.7c2-1.6,6.9-4.5,13.4-0.2
	C753.4,618.7,762.9,610.7,763.3,610.3z"/>
<g>
	<path class="st3" d="M795,283.9c-1.8-4.9-4-9.2-6.6-13c-2.5-3.9-5.3-7.4-8.3-10.6c-5.2-5.6-10.9-10.4-16.8-14.4l-3.8,11.5
		c-2,6.2-8,14.8-14.6,23.2c2.7,1.9,5.2,4,7.5,6.2c1.7,1.7,3.2,3.5,4.5,5.3s2.2,3.5,2.8,5c0.3,0.6,0.5,1.2,0.6,1.7
		c-0.1,0-0.3,0-0.4,0l-0.1-0.4c0,0-0.2,0-0.7,0c-0.2,0-0.5,0-0.9,0c-0.2,0-0.4,0-0.6,0c-0.1,0-0.1,0-0.2,0c-0.1,0-0.3,0-0.5,0
		c-0.1,0-0.3,0-0.4,0c-0.6,0-1.3,0.1-2.1,0.1c-0.1,0-0.3,0-0.4,0c-0.1,0-0.3,0-0.4,0c-0.9,0-1.8,0.1-2.8,0.2c-0.2,0-0.3,0-0.5,0
		s-0.3,0-0.5,0c-2.1,0.1-4.4,0.3-6.8,0.5c-0.3,0-0.6,0-0.9,0.1c-0.9,0.1-1.8,0.1-2.7,0.2c-0.4,0-0.9,0.1-1.3,0.1
		c-0.5,0-1,0.1-1.4,0.1c-0.4,0-0.8,0.1-1.3,0.1c-0.3,0-0.6,0.1-0.9,0.1c-0.5,0.1-1,0.1-1.4,0.1c-0.3,0-0.6,0.1-0.9,0.1
		c-0.6,0.1-1.2,0.1-1.7,0.2c-0.9,0.1-1.8,0.2-2.7,0.3c-0.3,0-0.5,0.1-0.8,0.1c-1,0.1-2,0.3-3,0.4c-0.2,0-0.4,0.1-0.6,0.1
		s-0.4,0.1-0.6,0.1c-0.2,0.1-0.5,0.1-0.7,0.1c-0.1,0-0.2,0-0.3,0.1s-0.2,0-0.3,0.1c-0.2,0.1-0.5,0.1-0.7,0.1
		c-0.3,0.1-0.6,0.1-0.9,0.2s-0.6,0.2-0.9,0.3c-0.3,0.1-0.5,0.2-0.8,0.3c-0.1,0.1-0.2,0.1-0.3,0.1c0,0,0,0,0.1-0.1
		c0.1-0.1,0.1-0.1,0.2-0.2c0.2-0.2,0.4-0.4,0.7-0.8c0,0,0,0,0-0.1c0.1-0.1,0.3-0.3,0.5-0.5c0.6-0.7,1.4-1.6,2.4-2.6
		c0.3-0.3,0.7-0.7,1-1.1c0.4-0.4,0.8-0.9,1.2-1.4c0.6-0.7,1.2-1.4,1.9-2.1c0.4-0.5,0.9-1,1.4-1.5s0.9-1.1,1.4-1.6
		c0.2-0.3,0.5-0.6,0.7-0.8c0.8-0.9,1.5-1.7,2.3-2.6c0.5-0.6,1-1.2,1.6-1.8c0.8-0.9,1.6-1.9,2.4-2.8c0.5-0.6,1.1-1.3,1.6-1.9
		c0.8-1,1.6-2,2.4-2.9c0.1-0.1,0.2-0.3,0.3-0.4l0,0c0.7-0.8,1.4-1.7,2-2.6c0.5-0.7,1-1.3,1.5-2c0.5-0.6,1-1.3,1.5-1.9
		s0.9-1.3,1.4-1.9s0.9-1.3,1.3-1.9c0.4-0.6,0.8-1.2,1.2-1.9c0.2-0.3,0.4-0.6,0.6-0.9c0.2-0.3,0.4-0.7,0.6-1l0.1-0.1
		c0.3-0.5,0.6-1,0.9-1.5c0.2-0.3,0.3-0.6,0.5-0.8c0.2-0.3,0.3-0.6,0.4-0.8c0.3-0.5,0.6-1.1,0.8-1.6s0.5-1,0.7-1.5
		c0.1-0.3,0.3-0.6,0.4-1c0.1-0.1,0.1-0.3,0.1-0.4c0,0-0.1,0.1-0.2,0.2c-0.1,0-0.1,0.1-0.2,0.2l-0.1,0.1c0,0-0.1,0-0.1,0.1
		c-0.1,0.1-0.2,0.2-0.3,0.3c-0.4,0.3-0.8,0.8-1.4,1.3c0,0,0,0-0.1,0.1s-0.2,0.2-0.4,0.3c-0.3,0.3-0.7,0.7-1.1,1
		c-9.6,8.6-38.7,32.1-81.4,41.1c-2.8,1.7-7.7,9.7-7.7,9.7s-27.1,4.3-32.4,6.2c-5.3,2-10.3,16-1.2,21c0.5,0.3,0.9,0.5,1.4,0.8
		c0.4,0.2,0.8,0.5,1.1,0.7c0.1,0,0.2,0.1,0.3,0.2c0.4,0.2,0.7,0.5,1.1,0.7c0.4,0.3,0.8,0.5,1.2,0.8c0.3,0.2,0.6,0.4,0.9,0.6
		c1.3,0.9,2.5,1.7,3.6,2.6c1.9,1.5,3.5,2.9,4.8,4.1c0.1,0.1,0.3,0.3,0.4,0.4c0.4,0.4,0.7,0.7,1,1.1c0.2,0.2,0.4,0.4,0.5,0.6
		c0.1,0.1,0.2,0.2,0.2,0.3c0.1,0.1,0.1,0.1,0.1,0.2l0,0c0,0.1,0.1,0.1,0.1,0.2s0.1,0.1,0.1,0.2s0.1,0.1,0.1,0.2c0,0,0,0,0-0.1
		c0,0,0,0,0-0.1v-0.1c0-0.1,0-0.1,0-0.2s0-0.2-0.1-0.3c0-0.1,0-0.2,0-0.2c0-0.2-0.1-0.3-0.1-0.5c0-0.1,0-0.2,0-0.3
		c-0.1-0.3-0.1-0.7-0.1-1s-0.1-0.6-0.1-0.9c0-0.1,0-0.2,0-0.3c0-0.3,0-0.5-0.1-0.8c0-0.4,0-0.7,0-1.1c0-0.1,0-0.1,0-0.2
		c0-0.4,0-0.7,0-1.1c0-0.2,0-0.5,0-0.7s0-0.4,0.1-0.5c0-0.1,0-0.2,0.1-0.3c0-0.1,0-0.3,0.1-0.4c0-0.2,0.1-0.4,0.1-0.6
		c0-0.1,0.1-0.2,0.1-0.4c0-0.1,0.1-0.2,0.1-0.2l0,0c0-0.1,0.1-0.2,0.1-0.3c0,0,0-0.1,0.1-0.1c0.1-0.1,0.2-0.2,0.3-0.4l0,0
		c0,0,0.3,0.3,0.8,0.9c0.1,0.1,0.2,0.3,0.4,0.4c0.1,0.2,0.3,0.4,0.5,0.6s0.3,0.4,0.5,0.6c0.4,0.5,0.8,0.9,1.1,1.4
		c0.5,0.6,1,1.2,1.4,1.8c0.9,1.2,1.6,2.3,1.9,3c0,0-0.2-3.2,0.5-6.2c0.1-0.6,0.3-1.2,0.5-1.7c0-0.1,0-0.1,0.1-0.2
		c0.3-0.8,0.7-1.5,1.2-2.1c0.2-0.2,0.4-0.4,0.6-0.6s0.4-0.4,0.6-0.6c0.1-0.1,0.2-0.2,0.4-0.3l0,0c0.3-0.2,0.5-0.5,0.8-0.7
		s0.6-0.4,0.9-0.6s0.6-0.4,0.9-0.6c1.7-0.9,3.4-1.6,5-1.6c0.8,0,1.6,0.2,2.2,0.6c0.2,0.1,0.4,0.3,0.5,0.4l0,0
		c0.2,0.2,0.4,0.3,0.5,0.5c0.3,0.3,0.6,0.7,0.9,1.1c0.1,0.2,0.3,0.4,0.4,0.6c0.1,0.2,0.3,0.4,0.4,0.6c0.1,0.1,0.1,0.2,0.2,0.4v0.1
		c0.1,0.2,0.2,0.4,0.3,0.6c0.1,0.1,0.1,0.3,0.2,0.4l0,0c0.1,0.3,0.3,0.6,0.4,0.8l0,0c0.1,0.1,0.1,0.3,0.2,0.4c0,0.1,0.1,0.2,0.1,0.4
		c0.1,0.1,0.1,0.2,0.1,0.3c0.1,0.1,0.1,0.2,0.1,0.3c0,0.1,0,0.1,0.1,0.2c0,0.1,0,0.1,0,0.2s0,0.1,0,0.1s0-0.1,0-0.2s0-0.2,0-0.3
		c0-0.2,0.1-0.4,0.1-0.7c0-0.2,0.1-0.4,0.1-0.6c0-0.3,0.1-0.7,0.2-1c0.1-0.6,0.2-1.2,0.4-1.9c0.1-0.3,0.1-0.5,0.2-0.8
		c0-0.1,0.1-0.3,0.1-0.4c0.1-0.4,0.2-0.7,0.3-1.1c0.1-0.1,0.1-0.3,0.2-0.4c0.1-0.1,0.1-0.3,0.2-0.4c0.1-0.1,0.1-0.2,0.2-0.3
		c0.1-0.2,0.2-0.4,0.3-0.5c0,0,0-0.1,0.1-0.1c0,0,0,0,0.1-0.1l0,0c0,0,13.3,1.2,13.8,1.5s1.8,1.5,1.8,1.5s0,0-0.1,0c0,0,0,0-0.1,0
		l0,0c-0.1,0-0.1,0-0.2,0c-0.1,0-0.2,0.1-0.3,0.1h-0.1c-0.1,0-0.1,0-0.2,0.1c-0.1,0-0.3,0.1-0.4,0.2c-0.3,0.1-0.7,0.3-1,0.5
		c-0.1,0.1-0.3,0.2-0.4,0.2c-0.3,0.2-0.5,0.4-0.8,0.6c-0.2,0.1-0.3,0.2-0.5,0.4c-0.2,0.2-0.5,0.4-0.7,0.6c-0.1,0.1-0.2,0.2-0.3,0.3
		c-0.1,0-0.1,0.1-0.2,0.2c-0.1,0.1-0.2,0.2-0.2,0.3c-0.2,0.2-0.3,0.4-0.5,0.6s-0.3,0.4-0.5,0.6c-0.1,0.1-0.2,0.2-0.3,0.3
		c-0.1,0.1-0.2,0.3-0.3,0.4c-0.2,0.3-0.4,0.6-0.6,0.9c-0.1,0.2-0.2,0.3-0.3,0.5c-0.3,0.4-0.5,0.9-0.8,1.3c-0.4,0.6-0.7,1.3-1,2
		c-0.4,0.7-0.7,1.5-1,2.3c-0.1,0.2-0.2,0.4-0.2,0.6c-0.3,0.9-0.7,1.8-1,2.7c-0.1,0.2-0.2,0.5-0.2,0.7c-0.2,0.5-0.4,1-0.6,1.5
		s-0.4,1-0.7,1.6c-0.2,0.5-0.4,1-0.7,1.5c-0.2,0.5-0.4,0.9-0.6,1.4c-0.1,0.2-0.2,0.4-0.3,0.6c-0.1,0.2-0.2,0.4-0.3,0.5
		s-0.2,0.3-0.2,0.5c-0.1,0.2-0.2,0.4-0.3,0.5l-0.1,0.1c-0.1,0.2-0.1,0.2-0.1,0.2l0,0l-4.5-2.5l-4.8,8.8l0,0l0,0c0,0,0,0-0.1,0
		c0,0,0,0-0.1,0c-0.1,0-0.1-0.1-0.2-0.1l0,0c-0.1,0-0.1-0.1-0.2-0.2l-0.1-0.1c-0.1-0.1-0.2-0.1-0.3-0.2s-0.2-0.2-0.3-0.2
		s-0.1-0.1-0.2-0.1l0,0c-0.1-0.1-0.2-0.2-0.3-0.3c-0.1-0.1-0.2-0.2-0.3-0.3l0,0c-0.5-0.4-0.9-0.9-1.1-1.3l-0.1-0.1
		c0,0-0.1-0.1-0.1-0.2s-0.1-0.2-0.1-0.2c0-0.1,0-0.2,0-0.3v0.1l-3.4,5.7l0,0l-7-3.9l0,0l1.6,3.7v0.1l0,0l0,0l-7.5-4.2l0,0
		c0,0,0,0.2,0,0.4c0,0,0,0.1,0,0.2s0,0.2,0.1,0.4c0,0.1,0,0.2,0,0.2c0,0.2,0.1,0.5,0.1,0.8c0,0.2,0.1,0.4,0.1,0.6s0.1,0.4,0.1,0.5
		c0.1,0.4,0.2,0.8,0.3,1.2c0.1,0.2,0.1,0.4,0.2,0.6c0.1,0.3,0.2,0.6,0.3,0.9c0.1,0.3,0.2,0.6,0.3,0.8c0.1,0.3,0.2,0.6,0.4,0.9
		c0.1,0.3,0.3,0.6,0.4,0.9c0.2,0.5,0.5,1,0.8,1.5c0.2,0.2,0.3,0.5,0.5,0.8c0.1,0.1,0.2,0.3,0.3,0.5c0.1,0.2,0.2,0.3,0.3,0.5
		c0.2,0.3,0.5,0.6,0.7,0.9s0.5,0.6,0.8,0.9c0.1,0.2,0.3,0.3,0.4,0.5c0.1,0.2,0.3,0.3,0.4,0.4c0.2,0.2,0.4,0.4,0.5,0.5
		c0.1,0.1,0.3,0.3,0.5,0.4c0.3,0.3,0.6,0.5,1,0.8c0.2,0.1,0.3,0.2,0.5,0.4l0.5,0.4c0.1,0.1,0.3,0.2,0.5,0.3c0.2,0.1,0.5,0.3,0.7,0.4
		l0,0c0.2,0.1,0.5,0.2,0.7,0.4c0.1,0,0.2,0.1,0.3,0.1c0.9,0.5,1.8,0.9,2.7,1.2c0.1,0.1,0.3,0.1,0.5,0.2c0.5,0.2,1,0.4,1.5,0.6
		c0.7,0.3,1.4,0.6,2.1,0.8c0.3,0.1,0.5,0.2,0.8,0.3c0.8,0.2,1.5,0.5,2.2,0.6c0.2,0.1,0.5,0.1,0.7,0.2s0.4,0.1,0.6,0.2
		c0.5,0.1,0.9,0.2,1.3,0.3c0.3,0.1,0.7,0.1,1,0.2c0.1,0,0.1,0,0.2,0c0.3,0.1,0.6,0.1,0.9,0.1c0.1,0,0.1,0,0.1,0
		c0.3,0,0.6,0.1,0.9,0.1c0,0,0,0,0.1,0c0.5,0.1,1,0.1,1.5,0.1c0.4,0,0.8,0,1.2,0c0.2,0,0.4,0,0.6,0s0.4,0,0.5,0l0,0
		c1.2,0,2.3,0,3.4-0.1l0,0l-0.1-0.1c-0.1-0.1-0.3-0.2-0.4-0.4c-0.1-0.1-0.1-0.1-0.2-0.2c-0.1-0.1-0.1-0.1-0.2-0.2
		c-0.2-0.2-0.3-0.3-0.5-0.5s-0.4-0.4-0.6-0.6s-0.4-0.5-0.6-0.7s-0.4-0.5-0.6-0.8c-0.1-0.1-0.2-0.3-0.3-0.4c-0.1-0.2-0.3-0.4-0.4-0.6
		c-0.1-0.1-0.2-0.2-0.2-0.3l-0.1-0.1c-0.2-0.3-0.3-0.5-0.5-0.8s-0.4-0.7-0.5-1.1c-0.2-0.4-0.3-0.7-0.5-1.1c-0.1-0.2-0.1-0.4-0.2-0.6
		c-0.1-0.4-0.2-0.8-0.3-1.2c-0.2-1-0.3-2-0.3-3.1l0,0v-0.1c0-0.2,0-0.4,0.1-0.5c0-0.2,0.1-0.4,0.1-0.6s0.1-0.4,0.1-0.6
		c0-0.1,0.1-0.2,0.1-0.4c0-0.2,0.1-0.3,0.1-0.5c0.1-0.3,0.2-0.7,0.4-1c0.3-0.7,0.7-1.3,1.2-2c0.1-0.1,0.1-0.2,0.2-0.3l0,0
		c0.1-0.2,0.3-0.4,0.5-0.5c0.3-0.3,0.6-0.7,0.9-1c0.2-0.2,0.3-0.3,0.5-0.5c0,0,0,0,0.1-0.1c0,0,0,0,0.1-0.1l0,0l0,0
		c0.2-0.2,0.5-0.4,0.7-0.6c0.1-0.1,0.2-0.2,0.4-0.3c0.1-0.1,0.3-0.2,0.4-0.3c0.3-0.2,0.6-0.4,0.9-0.6s0.6-0.4,0.9-0.6
		c0.1-0.1,0.2-0.1,0.3-0.2c0.1-0.1,0.2-0.1,0.3-0.2c0.2-0.1,0.4-0.3,0.7-0.4c0.3-0.2,0.6-0.4,1-0.5c0.3-0.2,0.7-0.3,1-0.5
		c0,0,0.1,0,0.1-0.1c1.1-0.5,2.2-1,3.5-1.5c0.3-0.1,0.5-0.2,0.8-0.3c0.1,0,0.2-0.1,0.3-0.1c0.4-0.1,0.7-0.1,1.1-0.2
		c0.3,0,0.5-0.1,0.8-0.1s0.5-0.1,0.8-0.1c0.5,0,1-0.1,1.5-0.1l0,0c0.6,0,1.3,0,1.9,0.1c0,0,0,0,0.1,0c0.2,0,0.5,0,0.7,0.1l0,0
		c0.2,0,0.4,0.1,0.5,0.1c0.2,0,0.4,0.1,0.5,0.1c0.2,0.1,0.5,0.1,0.7,0.2c0.1,0,0.3,0.1,0.4,0.1c0.1,0,0.2,0.1,0.4,0.1
		c0.1,0,0.2,0.1,0.3,0.1h0.1c2.5,0.8,5,2,7.6,3.2c0.5,0.2,1,0.5,1.5,0.7l0,0c1,0.4,2,0.9,3.1,1.3c0.8,0.3,1.6,0.6,2.5,0.8
		c0.4,0.1,0.8,0.2,1.2,0.4c0.7,0.2,1.4,0.4,2.1,0.5c0.7,0.2,1.4,0.3,2.1,0.4c2.3,0.4,4.4,0.5,6.2,0.5c0.7,0,1.4,0,2.1-0.1
		c0.3,0,0.6,0,0.9-0.1c0.5,0,0.9-0.1,1.3-0.2c0.2,0,0.4-0.1,0.6-0.1s0.5-0.1,0.7-0.1c0.3,0,0.5-0.1,0.8-0.2c0.2-0.1,0.5-0.1,0.7-0.2
		c0.5-0.1,1-0.3,1.4-0.4c0.7-0.2,1.3-0.5,1.8-0.8c0.2-0.1,0.4-0.2,0.5-0.3c0.1,0,0.2-0.1,0.2-0.1c0.1,0,0.1-0.1,0.2-0.1
		c0.3-0.2,0.5-0.3,0.6-0.4c0.1-0.1,0.2-0.2,0.2-0.2l0,0l0,0l0,0c0,0-0.2,0-0.4,0h-0.2c-0.2,0-0.4,0-0.6,0c-0.3,0-0.6,0-1,0
		c-0.2,0-0.4,0-0.6,0s-0.5,0-0.8-0.1c-0.3,0-0.7-0.1-1-0.1c-0.1,0-0.2,0-0.2,0h-0.1c-0.2,0-0.3,0-0.5-0.1h-0.1c-0.2,0-0.3,0-0.5-0.1
		c-0.3,0-0.7-0.1-1-0.2c-0.1,0-0.3,0-0.4-0.1c-0.3-0.1-0.6-0.1-1-0.2c-0.3-0.1-0.5-0.1-0.8-0.2c-0.2,0-0.3-0.1-0.5-0.1
		c-0.2-0.1-0.5-0.2-0.8-0.2c-0.2-0.1-0.4-0.1-0.6-0.2c-0.1,0-0.2-0.1-0.4-0.1c-0.4-0.1-0.8-0.3-1.2-0.5h-0.1
		c-0.2-0.1-0.5-0.2-0.7-0.3c0,0-0.1,0-0.1-0.1c-0.2-0.1-0.4-0.2-0.5-0.3c-0.2-0.1-0.4-0.2-0.6-0.3c0,0-0.1,0-0.1-0.1
		c-0.3-0.2-0.5-0.3-0.8-0.5s-0.5-0.4-0.8-0.6c-0.3-0.3-0.7-0.6-1-0.9c-0.2-0.1-0.3-0.3-0.5-0.5c-0.1-0.1-0.2-0.2-0.2-0.3
		c-0.1-0.1-0.2-0.2-0.2-0.3c-0.1-0.1-0.2-0.2-0.3-0.4c-0.2-0.2-0.3-0.5-0.5-0.7c0-0.1-0.1-0.1-0.1-0.2c0,0-0.1-0.1-0.1-0.2
		c-0.1-0.1-0.1-0.2-0.2-0.4c-0.1-0.2-0.2-0.5-0.3-0.8s-0.2-0.5-0.3-0.8c-0.2-0.6-0.3-1.2-0.4-1.8c-0.3-1.9-0.2-4,0.4-6.5
		c0-0.2,0.1-0.3,0.1-0.5c0-0.1,0.1-0.3,0.1-0.4s0-0.2,0.1-0.2c0-0.1,0.1-0.2,0.1-0.3c0,0,0-0.1,0.1-0.1c0-0.1,0-0.1,0.1-0.2
		c0-0.1,0.1-0.3,0.2-0.4c0.1-0.1,0.1-0.2,0.2-0.4c0.1-0.2,0.2-0.4,0.3-0.7c0-0.1,0.1-0.2,0.1-0.2c0.1-0.2,0.2-0.3,0.3-0.5
		c0-0.1,0.1-0.2,0.2-0.2l0,0c0.1-0.1,0.2-0.3,0.3-0.4l0,0l0,0c0.2-0.3,0.4-0.5,0.6-0.8c0.2-0.2,0.3-0.4,0.5-0.6s0.5-0.5,0.7-0.7
		s0.4-0.4,0.6-0.5l0,0c0.5-0.4,1.1-0.8,1.7-1.2c0.2-0.1,0.4-0.2,0.6-0.4c0.2-0.1,0.4-0.2,0.5-0.3c0.1,0,0.2-0.1,0.3-0.2
		c0.2-0.1,0.3-0.2,0.5-0.2c0.2-0.1,0.5-0.2,0.7-0.3c0.3-0.1,0.7-0.3,1-0.4c0.2-0.1,0.5-0.2,0.8-0.3c0.2-0.1,0.5-0.2,0.7-0.2h0.1
		c0.5-0.1,1-0.3,1.5-0.4c0.4-0.1,0.7-0.2,1.1-0.3c0.4-0.1,0.8-0.2,1.1-0.2c0.3-0.1,0.6-0.1,0.9-0.2c0.4-0.1,0.8-0.1,1.2-0.2
		c0.5-0.1,1-0.2,1.5-0.2c0.4,0,0.8-0.1,1.2-0.1s0.8-0.1,1.2-0.1c0.7-0.1,1.5-0.1,2.2-0.2c0.7,0,1.4-0.1,2.2-0.1l0,0
		c0.4,0,0.7,0,1.1,0c0.4,0,0.7,0,1.1,0c0.7,0,1.5,0,2.2,0c1.5,0,2.9,0,4.4,0c0.7,0,1.4,0,2.1,0c2.1,0.1,4.2,0.1,6.1,0.2
		c1.2,0,2.4,0,3.5,0c2.4,0,4.4,0.2,6,0c0.3,0,0.6-0.1,0.9-0.1l5.2-1.1l0.3-0.1l0,0h0.1c0.2-0.1,0.4-0.1,0.7-0.2
		c3.1-1,6.3-2.5,9.3-4.6s5.9-4.8,8.1-8c2.3-3.1,3.9-6.6,4.9-10.1s1.5-6.8,1.5-10C798.1,294.3,796.8,288.8,795,283.9z M693.2,304.5
		l-0.1,0.1c0,0,0,0-0.1,0.1c-0.1,0.2-0.3,0.3-0.4,0.5c-6.2,6.6-11.5,8.5-15.6,8.5c-5.4,0-8.7-3.5-9.3-4.2c-0.1-0.1-0.1-0.1-0.1-0.1
		c0.4,0,0.8-0.1,1.2-0.1c0.3,0,0.6-0.1,1-0.1c0.8-0.1,1.6-0.3,2.5-0.4c0.4-0.1,0.9-0.2,1.3-0.3c0.5-0.1,1-0.2,1.4-0.3
		c0.3-0.1,0.6-0.1,0.9-0.2h0.1c0.8-0.2,1.6-0.3,2.4-0.5c0.2,0,0.3-0.1,0.5-0.1c0.3-0.1,0.7-0.2,1-0.2c0.3-0.1,0.7-0.2,1-0.2
		c0.4-0.1,0.7-0.2,1.1-0.2c0.3-0.1,0.6-0.1,0.9-0.2c0.6-0.2,1.3-0.3,1.9-0.4c0.2-0.1,0.5-0.1,0.7-0.2c0.1,0,0.2,0,0.2-0.1
		c0.6-0.1,1.2-0.3,1.8-0.4c0.7-0.2,1.4-0.3,2-0.4c0.2-0.1,0.4-0.1,0.6-0.1c0.3-0.1,0.6-0.1,0.9-0.2c0.2,0,0.4-0.1,0.5-0.1
		c0.2,0,0.3,0,0.4-0.1c0.1,0,0.2,0,0.3-0.1c0.3,0,0.5-0.1,0.7-0.1c0.1,0,0.1,0,0.1,0C693.1,304.4,693.2,304.4,693.2,304.5
		C693.3,304.3,693.3,304.4,693.2,304.5z M762.4,298.4c0,0-0.1,0.1-0.3,0.1l0,0C762.5,298.3,762.6,298.3,762.4,298.4z"/>
	<path class="st3" d="M814.3,560.3c-1.4-1.6-7.6-3.9-12-4.6c-4.5-0.8-4.4,6.4-6.5,9.2c-2.1,2.9-4.1,2.5-6.2,2.9
		c-2.1,0.4-2.7,2.7-2.7,2.7s-4.5,3.1-3.4,0.7c1.1-2.4,1.4-4.9,4.7-7.2c2.3-1.6,3.7-3.4,4.2-5.3l0,0c0.2-0.9,0.1-1.7-0.1-2.6
		c-0.2-0.5-0.2-0.9-0.3-1.2l0,0c-0.3-1.5,0.1-1.8-1.3-6.8c-0.2-0.8-0.5-1.4-0.8-1.8c-0.5-0.7-1-1-1.6-1.1c-1.9-0.2-4.2,2.3-5.8,2.6
		c-2.3,0.4-5.4,2.8-6.2,6.5c-0.9,3.7-0.7,6.9-1.4,11.4s-4.8,4.2-12.6,5.8c-3.4,0.7-8-2.5-12.1-6.3l2.3-4.1l2.8-5.4
		c1.8-3.6,3.5-7.3,5.1-11.1s3.1-7.6,4.5-11.5c0.7-1.9,1.4-3.9,2-5.9c0.7-2,1.3-4,1.8-6c2.3-8.1,4.2-16.5,5.3-25.2
		c0.3-2.2,0.5-4.4,0.7-6.6l0.3-3.3l0.2-3.4c0.1-2.3,0.2-4.4,0.2-6.7c0-2.2,0-4.5-0.2-6.9c-0.2-4.7-0.7-9.7-1.7-15.2
		s-2.6-11.5-5.4-18.1c-1.4-3.3-3.2-6.7-5.5-10.2c-2.2-3.5-5-7-8.2-10.2s-6.8-6.2-10.7-8.6c-3.8-2.4-7.8-4.4-11.6-5.8
		c-7.7-2.8-14.6-3.9-20.5-4.3c-6-0.3-11.1-0.1-15.8,0.4c-9.3,1-16.8,2.7-23.7,4.4c-6.8,1.6-13,3.2-18.9,4.6l7.9-14.5
		c-0.6-0.2-1.1-0.4-1.7-0.6l-3.2-1.2c-1.4-0.6-2.9-1.2-4.5-2c-14-6.8-15.1-22.2-15.1-22.9l-0.6-10.3h0.1l2.2,1.2v-0.1l-1.6-3.7h0.1
		l3.3,1.8v-0.1l-0.4-0.9c-0.5-0.8-2.3-2.5-5-4.7L603,404.5c-0.5-0.4-1.1-0.8-1.6-1.2c-0.5-0.5-1-1-1.5-1.5c-1.4-1.6-2.8-3.7-4.1-6.2
		c-1.7-3.5-3-7.8-3.9-12.5c-1.8-9.5-1.6-20.7,0.2-31.7c3.6-22.2,13.3-44.6,27.5-61.7c7.1-8.5,15.4-15.7,24.5-20.6
		c9-5,18.9-7.8,29.2-8.2c1.3-0.1,2.6-0.1,3.9,0l2,0.1l2.3,0.2c0.7,0,1.5,0.1,2.2,0.1l-21,37.4l-0.2,0.3c1.3-1.6,1.7-2.2,3-3l1.1-0.9
		l25.7-16.8c0.1-0.1,8.7-5.4,18.4-12.9c7.3-5.7,15.3-12.5,20.8-19.4l12.4-11.7l5.7-5.4l11.9-21.9c1.1,0.1,2.2,0.1,3.3,0.1
		c28.3-0.3,50.9-23.5,50.6-51.8c-0.3-28.3-23.5-50.9-51.8-50.6c-25.2,0.3-46,18.7-49.9,42.8c3.1-3.1,10.7-8.8,21.2-4.9
		c5-11,16.1-18.7,29-18.9c17.8-0.2,32.4,14.1,32.6,31.9c0.2,17.8-14.1,32.4-31.9,32.6c-17.8,0.2-32.4-14.1-32.6-31.9
		c0-2,0.1-4,0.5-5.9c-2.5,1.2-5,3.4-6.5,7.4c0.5,1.8,1.6,7.9-4.7,13.3c-3.8,3.3-3.5,4.2-3.2,4.8c0.2,0.6,0.5,1.4,0.1,2.5
		c1.7,3.6,3.9,6.9,6.4,10l-7.3,13.1c-0.6-0.4-1-0.7-1-0.7l-3.9-9.9l0.8-2.4c0,0,2.1-6.7,3.4-9.8l0,0c0-0.1,0.1-0.2,0.1-0.3
		s0.1-0.2,0.1-0.2s0-0.1,0.1-0.1c0-0.1,0.1-0.2,0.1-0.2l0,0l0,0c0,0,0-0.1,0.1-0.1v-0.1c0-0.1,0.1-0.2,0.1-0.3s0-0.2,0-0.2
		c0-0.7-0.6-1.2-0.6-2.1l0,0c0-0.1,0-0.1,0-0.2c0-0.1,0-0.1,0.1-0.2c0-0.1,0-0.2,0.1-0.3c0-0.1,0.1-0.2,0.1-0.3s0.1-0.2,0.2-0.3
		c0.1-0.1,0.1-0.2,0.2-0.3c0.2-0.3,0.5-0.6,0.8-1c0.1-0.1,0.2-0.2,0.4-0.4c0.1-0.1,0.3-0.3,0.4-0.4c0.1-0.1,0.3-0.3,0.4-0.4
		c0.3-0.3,0.7-0.6,1-0.9c0.4-0.3,0.8-0.7,1.1-1.1c0.2-0.2,0.3-0.4,0.5-0.5c0.1-0.2,0.3-0.4,0.4-0.5c0.2-0.3,0.4-0.5,0.6-0.8
		c0.1-0.1,0.2-0.3,0.2-0.4c0.6-1,1-2,1.3-3c0.1-0.2,0.1-0.4,0.1-0.6c0.1-0.4,0.1-0.8,0.2-1.2c0-0.4,0.1-0.7,0.1-1.1
		c0-0.5,0-1-0.1-1.4c-0.3,0-0.7-0.1-1.2-0.3l0,0c-0.1,0-0.3-0.1-0.3-0.1c-0.1,0-0.2-0.1-0.3-0.1c-0.8-0.2-1.7-0.6-2.6-1.2
		c-1.1-0.6-2.1-1.4-3.2-2.2l-0.1-0.1c-1.3-0.9-2.3-1.8-3.2-2.5c-0.3-0.2-0.6-0.5-0.8-0.7c-0.3-0.2-0.5-0.4-0.7-0.6l-0.3-0.3
		c-0.4-0.4-0.7-0.7-1-1c-0.3,0-0.6,0.1-1,0.1c-0.3,0-0.6,0.1-0.9,0.1c-0.2,0-0.4,0.1-0.5,0.1c-0.2,0-0.4,0.1-0.6,0.1
		c-0.4,0.1-0.8,0.2-1.1,0.4c-0.1,0-0.2,0.1-0.2,0.1c-0.1,0-0.1,0.1-0.2,0.1c-0.1,0.1-0.2,0.1-0.3,0.2c-0.1,0.1-0.2,0.2-0.3,0.2
		l-0.2,0.2c0,0.1-0.1,0.1-0.1,0.2c-0.1,0.2-0.2,0.4-0.2,0.6c0,0.1,0.1,0.4,0.2,0.6c0.2,0.4,0.4,1,0.7,1.6c0.1,0.2,0.2,0.4,0.3,0.6
		c0.1,0.3,0.3,0.6,0.4,0.9c0.1,0.2,0.2,0.3,0.2,0.5c0.3,0.6,0.7,1.3,1,1.8c0.8,1.3,0.9,1.9,0.6,2.8c0,0.1-0.1,0.2-0.1,0.2
		c0,0.1-0.1,0.2-0.1,0.3c-0.1,0.1-0.1,0.3-0.2,0.5c-0.1,0.2-0.2,0.4-0.3,0.6c-0.1,0.2-0.2,0.4-0.3,0.7c-0.1,0.2-0.2,0.5-0.4,0.8
		c-0.1,0.1-0.1,0.3-0.2,0.4c-0.1,0.2-0.2,0.4-0.3,0.6c-0.2,0.3-0.3,0.7-0.4,0.9c0,0.1-0.1,0.3-0.1,0.4c0,0.1-0.1,0.3-0.1,0.4
		c-0.1,0.5-0.1,0.9-0.1,1.2l0,0c0.1,0.9,0.5,1.7,0.7,3.2c0.5,3-2.1,6.9-3,6.6c-0.9-0.3-2.3-3.5-2.9-5.1c-0.7-1.6-0.8-4.3-1.3-5
		s-4.8-7-4.8-7s-1.6-8.3-2.5-9.8c-0.8-1.3-2.2-3-4.6-6.6c-0.3-0.4-0.6-0.9-0.9-1.3c-0.4,0.1,0,0-0.8,0.2s-4.4,1.1-6.1,0.7
		c-1-0.2-3.1-0.9-5-1.1c-1.2-0.2-2.4-0.1-3.1,0.3c-0.1,0.1-0.2,0.1-0.3,0.2c-1.5,1.5-3.5,7.7-4.1,12.2c-0.5,4.5,6.6,4.1,9.5,6.1
		c3,2,2.6,4,3.2,6c0.5,2.1,2.8,2.6,2.8,2.6s3.3,4.4,0.8,3.3c-2.4-1-5-1.2-7.4-4.4c-1.7-2.2-3.6-3.6-5.5-3.9
		c-0.9-0.2-1.7-0.1-2.6,0.2c-0.5,0.2-0.9,0.3-1.2,0.4l0,0l0,0c-1.4,0.3-1.8,0-6.7,1.6c-0.8,0.3-1.3,0.6-1.8,0.9
		c-0.7,0.5-1,1.1-1,1.7c-0.1,1.9,2.5,4.1,2.9,5.6c0.5,2.3,3,5.2,6.8,5.9c3.7,0.7,6.9,0.4,11.4,0.9s4.4,4.6,6.4,12.3
		c1.7,6.9-12.7,19.8-15.8,22.5l0,0c-7.3,0.1-14.6,0.9-21.8,2.5c-8.3,1.8-16.4,4.7-24,8.3c-7.6,3.6-14.7,8.1-21.3,13
		s-12.6,10.5-18.1,16.3c-11,11.7-20,24.8-27.3,38.7c-7.2,13.9-12.7,28.7-16.3,44.2c-1.8,7.8-3.1,15.7-3.8,23.9
		c-0.7,8.2-0.7,16.7,0.2,25.4c0.9,8.7,2.8,17.7,6.3,26.8c1.4,3.7,3.1,7.4,5.2,11.1L473,467.1l-13.4,45c0-0.1-0.1-0.1-0.2-0.1
		c-1.8-0.4-3.7-0.1-5.7,0.4s-1.2,2.2-2.2,4.5c-0.5,1-0.8,1.9-1.1,2.7c0,0,0,0.1,0,0.2c-0.1,0.4-0.2,0.7-0.4,1.1
		c-0.2,0.5-0.4,1-0.6,1.5c-0.1,0.2-0.2,0.4-0.3,0.7c-1,2.1-2.6,11.5-2.6,11.5s-2.9-3.1-3.7-4.9c-0.8-1.7,0-1,0-4.8
		c0-3.4-1-2.7-1.6-4c-0.1-0.2-0.2-0.4-0.2-0.7c-0.1-0.2-0.1-0.5-0.2-0.8c-4.5,0-8.5,0.6-8.5,0.6c-3-9,5.1-10.6,5.1-10.6
		s0.4-0.7-0.3-2c-0.4-0.7-1.1-1.5-2.4-2.4c-3.7-2.7-3.2-0.8-8.2,5.4c-5,6.2,1.9,11.5,1.9,11.5s-0.7,1.5-1.1,2.5
		c-0.5,1,0,2.2-0.7,4.2c-0.7,2,3.7,2.3,4.1,3.1s2.1,4,1.8,5.2c4.4,1.1,10.9,3.2,14.5,6.7l2.7,2.7l0.5,0.5l-0.6-0.1l-3.9-0.7
		c-0.1,0-11.4-2-18.4,5l-0.7,0.7l0,0c0,1-0.3,2.2-0.9,3.4c-0.9,2-0.4,10.5-6.3,10.8c-4.3,0.2-12.2,11.7-16.1,17.8
		c-2.9,0.1-5.9,0.3-8.8,0.6c-8.3,0.9-16.8,2.5-25.3,5.3c-4.2,1.4-8.5,3.1-12.7,5.1c-4.2,2.1-8.3,4.5-12.2,7.2
		c-7.9,5.5-15.1,12.5-20.7,20.4c-2.9,3.9-5.3,8.1-7.4,12.3c-1.1,2.1-2,4.3-2.9,6.4c-0.8,2.1-1.7,4.3-2.4,6.5
		c-2.9,8.7-4.4,17.3-5,25.7c-0.2,2.1-0.2,4.2-0.4,6.2c0,2-0.1,4.1,0,6.1l0.1,3c0,1,0.1,2,0.1,2.9l0.4,5.6l0.2,2.8
		c0.1,0.9,0.2,1.9,0.3,2.8l0.7,5.6c0.2,1.9,0.6,3.7,0.9,5.6c0.3,1.9,0.6,3.7,1,5.6c3,14.8,7.5,29.5,14.4,43.2c0.4,0.6,0.7,1.3,1.1,2
		l0,0c3.5,6.2,8.7,15,12.8,20.8c0.2,0.2,0.3,0.4,0.5,0.7c0.2,0.3,0.4,0.6,0.7,0.9c0.1,0.1,0.1,0.2,0.2,0.3
		c9.4,12.2,18.6,19.8,30.9,28.3c4.7,3.2,9.7,6.2,14.8,8.8c0.5,0.2,0.9,0.5,1.4,0.7c1.1,0.6,2.3,1.1,3.4,1.7c5.3,2.5,10.4,3.9,15.9,5
		l0,0c1.4,0.3,2.8,0.6,4.2,0.9c-1-0.7-2-1.5-3-2.3c-5.1-4-10.6-8.6-15.7-13.5c-0.4-0.4-0.9-0.9-1.3-1.3c-4.8-4.7-9.1-9.6-12.2-14.4
		c-0.8-1.3-1.5-2.4-2.2-3.5c-2.4-3.9-3.6-6.2-4.6-8.8v-0.1l0,0c-0.1-0.2-0.2-0.4-0.3-0.7c-0.2-0.5-0.4-1-0.6-1.5
		c-0.1-0.2-0.1-0.3-0.1-0.3c-1-2.7-2-5.3-2.9-8c0,0,0,0,0-0.1c-0.2-0.4-0.3-0.9-0.5-1.4c-0.1-0.3-0.2-0.6-0.3-0.9
		c-0.2-0.7-0.5-1.5-0.7-2.3c0-0.1,0-0.1,0-0.2c-0.5-1.7-1-3.3-1.5-5c-1.1-4-2-8.1-2.9-12.1c-0.1-0.3-0.2-0.6-0.2-0.9l0,0
		c-0.1-0.6-0.2-1.2-0.3-1.7c-0.2-1.1-0.4-2.1-0.6-3.2c-2.1-12-3-24.1-3.3-36.2c0-3,0-6.1,0-9.1c0.1-3.1,0.1-6.1,0.3-9.1l0.2-4.6
		c0-0.8,0.1-1.5,0.1-2.1l0.2-2.1c0.1-1.4,0.3-2.7,0.5-4c0.2-1.3,0.3-2.6,0.6-3.9c0.9-5.1,2.1-9.8,3.8-14c0.4-1.1,0.8-2,1.3-3
		c0.5-0.9,0.9-1.9,1.4-2.8c0.5-0.9,1-1.8,1.5-2.6c0.6-0.8,1.1-1.6,1.7-2.4c2.3-3.1,5-5.8,8.2-8.1c1.6-1.2,3.3-2.3,5.2-3.3
		s3.9-2,6-2.8c8.5-3.4,19.1-5.3,30.4-5.6l14.7-49.4c-2.5-0.3-4.9-0.6-7.4-0.8c0.5-1.5,0.8-3.1,1.6-4.9c1.5-3.3,4-3.7,4.6-4
		s5.6-4.2,5.6-4.2s-0.3,3.6,0.3,6.3c0.4,1.7,0.1,1.9-0.4,2.5c-0.3,0.3-0.6,0.7-1,1.5s-0.7,1.7-1,2.8c0,0.1-0.1,0.2-0.1,0.3
		s-0.1,0.2-0.1,0.3c-0.1,0.2-0.1,0.4-0.2,0.6c-0.5,1.6-1.1,3.6-2.4,6.4c-2.5,5.6-3.1,5.5-2.8,8.6c0.2,2.1,2,3.1,3.6,3.1l-9.2,30.9
		l-1.8,6.1l-45,151.8c1,1.8,2.3,3.9,4.1,6.7c2.5,3.9,6.1,8.2,10.8,12.8l150.8-271.6l-65.5-68.4l70.5,59.7l39.8-68.3
		c2.4,1.1,4.9,2.1,7.3,3L556,536.9l89.2,28l-94-19.6L392.8,813c4.6,4.5,10.1,9.2,16.4,14.2l136.4-148.4l5.3-5.8l47.3-51.4l10.2-11.2
		l40.7-44.3l-1-92.1l0,0c4.5,0,9-0.2,13.2-0.4c7.5-0.3,14.6-0.9,21.1-1.2c4.7-0.3,9.2-0.5,12.9-0.4c0,0.4,0,0.7,0.1,1.1
		c0,1,0.1,2.1,0.1,3.3c0,1.1,0,2.4,0,3.5v1.7l-0.1,1.7c0,1.1-0.2,2.3-0.3,3.5c-0.9,9.5-3.2,19.8-6.6,30.1
		c-6.9,20.6-18,41.3-32.1,59.4c-7.1,9-15,17.4-23.6,24.6c-4.3,3.6-8.8,7-13.4,9.9c-2.8,1.8-5.6,3.5-8.5,5l-53.7,58.4
		c5.4,1,10.8,1.7,16.3,2.1c8.4,0.6,16.9,0.3,25.3-0.7c8.3-1,16.5-2.7,24.5-5c15.9-4.6,30.7-11.4,44.4-19.7
		c13.7-8.3,26.3-18,37.8-28.8s21.9-22.7,31.1-35.6c1.2-1.7,2.4-3.4,3.6-5.1l0,0c0.9,3.1,2.2,0.3,3.5,0.1c1.3-0.3,5.1-1.3,5.6,1
		s-0.8,2.6-2.2,6.4s-1.6,0.1-9.2,5.4c-5.9,4.2-3.4,10-2,12.4c0.4,0.7,0.7,1.1,0.7,1.1l0,0c9.4-6.8,12.7-0.2,14.2-0.7
		c0.4-0.1,0.9-0.5,1.4-1.1c1.5-1.5,3.3-3.9,3.3-3.9l10.1-3.5l2.4,0.9c0,0,8.5,3.1,10.6,4.3s2-3.2,7.5,3.7c3.8,4.8,8.1,5.2,10.4,5
		c1-0.1,1.7-0.3,1.7-0.3V612l0,0c0.3-3.3,8-10.6,8-10.6s0,0-0.1-2.1c0-0.3,0-0.7,0-1.1c-0.1-3.2-1.3-4.9-2.1-4.8
		c-0.8,0.2-3.8,1.3-6.2,2.6s-2.6,0.5-6.2-1.4c-3.6-1.9-3.7-0.9-6.8-0.5c-3,0.4-6.8-2.4-6.5-3.3c0.4-0.9,3.6-2.1,5.2-2.7
		c1.6-0.6,4.4-0.6,5.1-1.1c0.7-0.4,7.2-4.4,7.2-4.4s8.4-1.2,9.9-2c1.3-0.8,3.1-2,6.8-4.3c0.4-0.3,0.9-0.6,1.4-0.9
		c-0.1-0.4,0,0-0.2-0.8s-0.9-4.4-0.5-6.1c0.3-1,1-3.1,1.4-5c0.2-1.2,0.2-2.3-0.1-3.1C814.4,560.5,814.4,560.4,814.3,560.3z
		 M691.1,219c0,0,1.7-0.7,4.8-1.8c3-1,0.2-2.2-0.1-3.5s-1.6-5.1,0.8-5.7c2.3-0.6,2.6,0.7,6.5,1.9c3.6,1.1,0.6,1.6,4.8,7.6l-2.6,4.7
		l0,0c-3.1-0.6-6.2-1.2-9.3-1.7c-1.8-0.3-3.6-0.6-5.4-0.8C690.9,219.3,691.1,219,691.1,219z M397.2,758.6l-2.7-7.2
		c0,0,9.9-30.5,11-31.2l2,9.1L397.2,758.6z M477.4,489.3l3.1,9.6l-27.2,88c0.1,0,0.2,0,0.2,0c1.7,0,3.2-0.8,4.3-1.5s1.7-1.5,1.8-1.5
		l2.9-3.4l-0.4,4.5c-0.7,8.1-8.5,12.6-12.6,14.4l-28.1,90.8l-4.7-8.5l24.8-78.7c0.2,0.1,0.3,0.1,0.4,0.2c1.2,0.5,2.6-1.5,3.5-2.9
		c0.1-0.1,0.1-0.2,0.1-0.2c0.1-0.2-0.1-0.2-0.4-0.3c-0.4-0.2-2.1-1.4-4.1-4.7c-0.1-0.1-0.1-0.2-0.2-0.4c0,0,0,0,0-0.1l0,0
		c-0.2-0.5-0.5-1-0.8-1.6c-1.4-2.9-1.6-5.1-0.7-6.9c0,0,0,0,0-0.1l0,0l0,0l0,0c0.1-0.2,0.2-0.3,0.4-0.4c0.1-0.1,0.2-0.2,0.3-0.3l0,0
		c1.2-1.1,3-1.6,4.1-1.9c0.5-0.1,0.9-0.2,1-0.3c0.3-0.2,0.6-0.3,1-0.7l0.8,0.9c0.1,0.2,0.3,0.4,0.4,0.5L477.4,489.3z M491.9,475.5
		l-0.1-7.6l59-35.1c0.9,1.3,1.7,2.7,2.7,4L491.9,475.5z M553.7,586.1l0.1,5c0.4-0.6,0.7-1.1,1-1.5s0.6-0.9,0.8-1.3
		c0.3-0.4,0.6-0.9,1-1.5l-4.4-2.2l2.7-4l3.6,3.4l2.7-4.2l4.2,2.9l-3.4,4.6l4,3.7l-0.2,0.4l-4.9-2.5l-0.9,1.2l2,6.6l-5,2.9l2.5-8.8
		L548.4,606l-3-2l8.2-12.6l-9,3.7l-0.3-0.4L553.7,586.1z M534.4,609.4l3.4,2.8l0.2-3.3l-1.7-0.8l2.3-3.3l3.7,3.3l0.7-1.9l4.3,2.9
		l-2,1.7l3.9,3.5l-0.2,0.3l-10.1-5l3.4,3.5h-3.7l2.6,2.1l3.4-2.5l2.8,3.8l-5.5-0.7l4.6,3.7l-0.3,0.4l-14-6.8L534.4,609.4z
		 M533.1,613.6l4.1,2.8l-0.8,1.1l8.1,2.6l-11.2,14.8l-3.7-6.4l0.2-0.4l3,1.4l1.8-2.8l-4.2-1.2l-3.3,4.4l-3.1-2.1L533.1,613.6z
		 M520.3,631.1l0.5-0.1l3.5,7.5l-5.8,1L520.3,631.1z M490.5,673.7l3.1,1.5l4.8-7.5l-2.4-0.8l2.7-4l1.7,1.7l3.7-5.8l4.2,2.9l-4.7,6.2
		l1.9,1.8l-0.2,0.4l-2.6-0.9l-5.8,7.7l3,1.5l-0.1,0.3l-10.9,0.1L490.5,673.7z M504,678.7l2.1,3.9l-10.3-1.3V681L504,678.7z
		 M519,684.1l-14.5-8.1l3.4,2.9l-3.1-0.6l12.2,6.4l-9.9,9.9l-4.8-7.2l0.2-0.4l4.8,1.7l1.7-1.9l-15-1.7l-0.1-0.4l13.1-2l2.3,3.6
		l1-1.2l-6.9-7.1l-5.4-1v-0.4l5.2-1.3l-2.1-1.2l2.2-3.2l15.8,12.7L519,684.1z M516.8,680.2l-3.1-2.1l0.8-1.3l-9.4-4.7l5-9.2l4.4,3
		l-1,1.2l10.5,5L516.8,680.2z M527.5,668.8l-13.1-9.5l-1.2-5.7l-1.7-1.2l-5.2,2.5l1-5.5l3.4,1.7l4.8-7.5l-1.9-3.8l0.2-0.3l8.5,3.2
		l-8.1,10.3l3.1,3.2l14.4,8.6L527.5,668.8z M541.6,650l-0.2,0.3l-9.9-5.1l3.6,3.2l-5.2-1l9.1,3.9l-9.6,11.8l-2.9-2l1.1-1.7
		l-11.3-4.6l7.4-12.5l4.2,2.9l-0.8,1l1.7,0.7l1.4-2.4l-7.2-3.7l2.4-3.5l3.8,3l-0.4-4l0.4-0.1l5.5,5.5l-4.3-0.5l3.6,2.8l3.4-2.5
		l4.1,4.5l-6.7-1.4L541.6,650z M559.4,623l-5.8-5.8l-1.7,2.2l1.7,2.5l0.8-1.6l4.1,2.8l-5.1,6.7l-4.6-4.9l-1.5,1.9l5.2,2.4l-1.7,2.4
		l-3.9-4.4l-1.8,2.2l4.8,1.9l-1.7,2.4l-3.6-3.8l-1.7,2.1l5.4,2.3l-1.7,2.4l-4.2-4.2l-1.7,2.2l5.8,2.7l2.5-2.2l0.4,0.2l-2.9,7.1
		l-11.1-7.2l10.3-15.3l4.4,3l-1,1.2l2.7,0.7l1.3-2.4l-6.5-2.7l4.2-7.8l4.4,3l-1.3,1.7l7.6,3.1L559.4,623z M573,604.3l-5.3,3.4
		l1.4-10.9l-11.4,15.3l-3-2.1l15.6-23.7l4.3,3l-5,6.8L573,604.3z"/>
	<path class="st3" d="M758.6,242.8l-8.6,8.9l-0.5,0.5c-0.1,0.1-0.1,0.1-0.2,0.2c0,0-0.1,0.1-0.2,0.2c-2,1.9-7.3,6.8-15.6,12.8
		c4.9-7.1,7-13.1,7.2-13.6l7.9-14.5C752,238.8,755.4,240.7,758.6,242.8L758.6,242.8z"/>
</g>
<path class="st3" d="M383.6,828.6L356,875.4l26.4-47.5c-4.9-2.5-9.7-5.3-14-8.2l-22.8,76.7l56.2-61.1c-5-1.2-9.5-2.6-14.3-4.8
	C386.2,829.9,384.9,829.3,383.6,828.6z"/>
<g>
	<path class="st4" d="M450.2,519.4c-4.8-2.4-13.7-1.7-17.2-1.2c-0.3-2,0-3.7,0.8-5.1c1.8-3,5.8-3.9,5.8-3.9
		C445,510.2,448.6,516.1,450.2,519.4z"/>
</g>
<g>
	<polygon class="st5" points="512.3,668.7 516.8,673.3 517.9,671.6 513.2,667.5 	"/>
	<polygon class="st5" points="510,671.6 514.9,676.3 516.4,673.9 510.8,670.6 	"/>
	<polygon class="st5" points="521.8,653.8 528,658.9 529.7,656.4 522.5,652.8 	"/>
	<polygon class="st5" points="524.1,650.8 530.1,655.8 531.5,653.6 524.7,649.9 	"/>
	<polygon class="st5" points="526.2,647.9 531.8,653.1 532.7,651.7 526.8,647 	"/>
	<polygon class="st5" points="538.5,620.5 536,618.1 534.8,619.7 537.2,622.6 	"/>
	<polygon class="st5" points="536.8,623.2 533.2,621.9 532.1,623.2 535,626.1 	"/>
</g>
<g>
	<path class="st4" d="M445.8,544.3c0,0-11.9-2.2-19.5,5.3l-0.1,0.1l0,0c-0.2-0.4-5.9-9.9,1.8-12.6c0,0,0.2,0,0.5,0.1
		c0.3,0.1,0.8,0.2,1.3,0.3l0,0C433.6,538.3,441.8,540.4,445.8,544.3z"/>
</g>
<g>
	<path class="st4" d="M460.7,584.8c-0.6,6.7-6.7,10.7-10.7,12.7c-2,1-3.6,1.3-3.9,1.2c-0.4-0.1-1.2-0.5-2.5-2.3
		c-0.6-0.9-1.4-2.2-2.3-4c-3.9-8.3,4.1-7.6,4.7-8.1c0.4,0.4,0.7,0.8,1,1.1c2,2,4,2.8,5.8,3C457.5,588.7,460.7,584.8,460.7,584.8z"/>
</g>
<g>
	<path class="st5" d="M666,165c-2.6,1-5.5,1.9-7.5,2.5c0.2-2.8,1-8.3,5.8-9.5C664.3,158,664.2,162.7,666,165z"/>
</g>
<g>
	<path class="st5" d="M699.4,131.7c0,0-12.7-0.9-13.6,11l-5.1,0.8c-1.9,0-4.4-0.8-6.3-1.5C673.9,137.2,674.7,124.5,699.4,131.7z"/>
</g>
<g>
	<path class="st5" d="M741.4,148.2c0,0-4.5-0.9-9.1,0.8c-2.9,1.1-5.9,3.3-7.7,7.4l-0.7,0.1c-0.1,0-0.2,0-0.3,0l0,0
		c-0.1-0.1-0.3-0.1-0.5-0.2c-0.9-0.4-2.3-1.1-4-2.4l-0.1-0.1c-1.4-1-2.8-2.2-4.1-3.5c-0.3-0.3-0.7-0.6-1-0.9l0,0
		c2.5-2.5,9.9-8.4,20-5.1C736.2,145,738.7,146.2,741.4,148.2z"/>
</g>
<g>
	<g>
		<path class="st5" d="M760.3,132.5c-0.2,0.5-1.2,1.7-1.7,1.8c-0.5,0-6.7,0.3-7.2,0s-2-0.6-2.3-1.5c0,0-1-1.4,3.6-1.7
			c4.6-0.2,5.4-0.2,6.3-0.2C759.9,131,760.5,132.1,760.3,132.5z"/>
	</g>
	<g>
		<path class="st5" d="M781,156.9c-16,0.7-16.2-15.3-16.3-16.7s-0.4-1.5-1.1-1.5c-0.8,0-7.6,0.7-7.6,0.7s0,4.8,0,5s4-2,4.9-2.5
			c1-0.5,1.7-0.5,1.7,0.3s-0.1,1.6-0.6,2.2c-0.5,0.6-6.3,3.4-6.3,3.4l0.1,3.6c0.5,0,3.1-1.1,5.2-2.2s3.4-0.4,2,1.2
			c-1.4,1.6-11.6,5.5-14.3,6.4c-2.8,0.9-3.1-0.3-3.7-1.2c-0.5-1-0.1-2.4,1.1-2s2.9-0.2,2.9-0.2c0-2.1-2.3-8.5-2.3-8.5
			c1.6-1.3,3.5-0.5,3.5-0.5c0.9,3,1.6,8.5,1.6,8.5c0.6,0.3,1.6-0.5,1.6-0.5c0-1-0.3-12.6-0.3-12.6s-3.5,0.5-4.1,0.5
			s-1.7-0.9-2.2-1.5s-0.5-1.8,0.3-2.1s16.9-1.1,16.9-1.1c0-1-0.1-1.9-0.2-2.9c-0.1-0.9-0.4-1-1-1.5s-0.4-0.8,0.3-1.3
			c0.7-0.6,0.9-0.2,0.9-0.2c0.9,0.5,3.3,1,3.3,1.7s0,4.6,0,4.6c1,0.1,2.4-0.3,3.1-0.3c0.8,0,1.3,0.8,1.3,1.2s-1.6,1.8-2.1,2.1
			s-2.4-0.1-2.4-0.1c0.6,9.1,3.1,11.2,6.1,13.3s4.1,0.8,4.1-0.7c0-1.4-3.6-5-3.8-5.2c2.5,1.3,8.3,7.1,8.7,7.8
			C783,154.9,782,156.9,781,156.9z"/>
	</g>
	<g>
		<path class="st5" d="M778.3,134.4c-0.1,2.8-2.2,4-3.5,4.7s-1.3-0.3-1-0.9s1.2-0.7,1.2-2.9s-1.6-4.6-1.6-4.6s0-0.4,0.6-0.3
			C776.3,130.7,778.3,132.8,778.3,134.4z"/>
	</g>
	<g>
		<path class="st5" d="M759.8,159.6c-0.8,0-2.3,0.2-3,0.5s-1.6,0-1.6,0c-0.1,0-1.5-0.3-1.8-0.9c-0.3-0.5-0.5-1,0.8-1.6
			c1.2-0.6,2.2-0.3,3.4-0.3s1.9,0.4,2.2,0.7s0.4,0.3,0.6,0.6C760.5,159,760.6,159.6,759.8,159.6z"/>
	</g>
	<g>
		<path class="st5" d="M758.1,163.9c-0.8,0.3-4.5,0.1-4.5,0.1s-0.3,2,0,3.2s2,2.4,2.3,2.9s0.5,1.5-0.2,1.4s-2.3-1.3-2.3-1.3
			c0.1,0.3,0.2,5.1,0,5.8s-2,3.5-2.9,4.2c-0.8,0.7-1.3,0-1.3-0.8s0.7-2.7,1.1-3.8c0.4-1,0.4-4.2,0.4-4.2s-0.5-0.3-1.1,0.1
			c-0.6,0.4-1.2,1-1.9,1.1c-0.6,0.1-1.7-0.5-1.1-0.8c0.6-0.3,0.3-0.1,2.3-1.9c2-1.7,2.6-5.2,2.4-5.8c-0.2-0.6-2.6,0-3.2,0
			c-0.7,0-0.5-0.4-1.1-0.8c-0.6-0.4-0.4-1,0.2-1.3c0.6-0.3,6.3-0.8,6.6-0.9c0,0,1.4,0.2,3,0.4s2.2,0.5,2.4,1.1
			C759.5,163.2,758.9,163.6,758.1,163.9z"/>
	</g>
	<g>
		<path class="st5" d="M776.2,164.1c-0.4-0.9-0.3-2.4,0.2-3.2s-0.1-0.7-1.2-0.7c-1.2,0-3.5,0.4-4.1,0s-0.4-1.6-0.5-1.9
			c-0.1-0.3-0.6-1.8-2.2-2c-0.6,0-0.5,1.9-0.6,2.9s-0.7,1-0.7,1s-4.5-0.1-4.9,0c-0.5,0-0.5,0-0.7,1.5s-0.5,7.4-0.1,8.4
			c0.3,1,0.8,0.4,1.1,0s0.7-1.5,1-1.5c0.4-0.1,3.6-0.1,3.9-0.1s0.2,1.6,0.4,4.7c0.1,3.1,0.8,5.9,1.4,7.5c0.6,1.5,1.3,3.2,1.6,1.1
			c0.3-2.1-0.3-6.6-0.5-7.4c-0.2-0.7-0.5-5.4,0.1-6.3c0,0,2.8,0.3,3.6,0.8c0.8,0.6,1,0.7,1.1,1.3s1.2,0.6,1.4-1
			C776.8,167.6,776.6,165,776.2,164.1z M767.1,166.3h-3c-1.1,0-0.5-0.4,0.2-1c0,0,2.5,0.1,2.7,0C767.3,165.1,768,166.3,767.1,166.3z
			 M767,163.5c-0.4,0.2-3.5,0.1-3.6-0.2s0.5-1.3,0.8-1.4c0.9-0.3,3.6,0.3,3.6,0.3S767.4,163.2,767,163.5z M770.8,162.1
			c0,0,2.1,0,2.5,0s0.8,0.6,0.8,0.6s-0.3,0.4-0.7,0.6c-0.4,0.2-2.7,0.1-3.1,0C769.6,163.2,770.8,162.1,770.8,162.1z M773.7,166
			c-0.4,0.1-3.4,0.1-3.4-0.1c0-0.3,0.8-0.6,0.8-0.6c1.3-0.4,3.3,0.1,3.3,0.2C774.4,165.6,774.1,165.9,773.7,166z"/>
	</g>
</g>
</svg>
