<?xml version="1.0" encoding="utf-8"?>
<!-- Generator: Adobe Illustrator 25.3.0, SVG Export Plug-In . SVG Version: 6.00 Build 0)  -->
<svg version="1.1" id="Capa_1" xmlns="http://www.w3.org/2000/svg" xmlns:xlink="http://www.w3.org/1999/xlink" x="0px" y="0px"
	 viewBox="0 0 620.6 905.1" style="enable-background:new 0 0 620.6 905.1;" xml:space="preserve">
<style type="text/css">
	.st0{fill:#E30613;}
	.st1{fill:#030405;}
	.st2{fill:#020203;}
	.st3{fill:#030304;}
</style>
<circle class="st0" cx="515.7" cy="107.7" r="36.4"/>
<path class="st1" d="M551.9,504.7c0,0-4.7-0.2-7.1,1.4c-0.9-2.7-1.7-5.5-2.2-7.6C545.4,498.7,551,499.9,551.9,504.7z"/>
<path class="st1" d="M576.7,541c0,0,1.4-12.6-10.3-14c-0.4-1.8-0.6-3.7-0.5-5.2c0.1-1.9,1-4.3,1.8-6.2
	C572.3,515.2,585,516.6,576.7,541z"/>
<path class="st1" d="M558.3,582.1c0.1-0.5,2.7-12.3-7.7-17.2c0.2-1.1,0.9-2.8,3-5.2c2-2.4,3.6-4.1,4.8-5.2
	C561.2,557.6,569.3,568.5,558.3,582.1z"/>
<path class="st1" d="M514.5,562.3c-0.2,0.4-3.5,7-12.3,5.3c-6.6-1.2-11.3-4.8-13.2-6.7c2-1.6,6.9-4.5,13.4-0.2
	C504.6,570.7,514.1,562.7,514.5,562.3z"/>
<g>
	<path class="st1" d="M546.2,235.9c-1.8-4.9-4-9.2-6.6-13c-2.5-3.9-5.3-7.4-8.3-10.6c-5.2-5.6-10.9-10.4-16.8-14.4l-3.8,11.5
		c-2,6.2-8,14.8-14.6,23.2c2.7,1.9,5.2,4,7.5,6.2c1.7,1.7,3.2,3.5,4.5,5.3s2.2,3.5,2.8,5c0.3,0.6,0.5,1.2,0.6,1.7
		c-0.1,0-0.3,0-0.4,0l-0.1-0.4c0,0-0.2,0-0.7,0c-0.2,0-0.5,0-0.9,0c-0.2,0-0.4,0-0.6,0c-0.1,0-0.1,0-0.2,0c-0.1,0-0.3,0-0.5,0
		c-0.1,0-0.3,0-0.4,0c-0.6,0-1.3,0.1-2.1,0.1c-0.1,0-0.3,0-0.4,0c-0.1,0-0.3,0-0.4,0c-0.9,0-1.8,0.1-2.8,0.2c-0.2,0-0.3,0-0.5,0
		s-0.3,0-0.5,0c-2.1,0.1-4.4,0.3-6.8,0.5c-0.3,0-0.6,0-0.9,0.1c-0.9,0.1-1.8,0.1-2.7,0.2c-0.4,0-0.9,0.1-1.3,0.1
		c-0.5,0-1,0.1-1.4,0.1s-0.8,0.1-1.3,0.1c-0.3,0-0.6,0.1-0.9,0.1c-0.5,0.1-1,0.1-1.4,0.1c-0.3,0-0.6,0.1-0.9,0.1
		c-0.6,0.1-1.2,0.1-1.7,0.2c-0.9,0.1-1.8,0.2-2.7,0.3c-0.3,0-0.5,0.1-0.8,0.1c-1,0.1-2,0.3-3,0.4c-0.2,0-0.4,0.1-0.6,0.1
		s-0.4,0.1-0.6,0.1c-0.2,0.1-0.5,0.1-0.7,0.1c-0.1,0-0.2,0-0.3,0.1s-0.2,0-0.3,0.1c-0.2,0.1-0.5,0.1-0.7,0.1
		c-0.3,0.1-0.6,0.1-0.9,0.2s-0.6,0.2-0.9,0.3c-0.3,0.1-0.5,0.2-0.8,0.3c-0.1,0.1-0.2,0.1-0.3,0.1c0,0,0,0,0.1-0.1s0.1-0.1,0.2-0.2
		c0.2-0.2,0.4-0.4,0.7-0.8c0,0,0,0,0-0.1c0.1-0.1,0.3-0.3,0.5-0.5c0.6-0.7,1.4-1.6,2.4-2.6c0.3-0.3,0.7-0.7,1-1.1
		c0.4-0.4,0.8-0.9,1.2-1.4c0.6-0.7,1.2-1.4,1.9-2.1c0.4-0.5,0.9-1,1.4-1.5s0.9-1.1,1.4-1.6c0.2-0.3,0.5-0.6,0.7-0.8
		c0.8-0.9,1.5-1.7,2.3-2.6c0.5-0.6,1-1.2,1.6-1.8c0.8-0.9,1.6-1.9,2.4-2.8c0.5-0.6,1.1-1.3,1.6-1.9c0.8-1,1.6-2,2.4-2.9
		c0.1-0.1,0.2-0.3,0.3-0.4l0,0c0.7-0.8,1.4-1.7,2-2.6c0.5-0.7,1-1.3,1.5-2c0.5-0.6,1-1.3,1.5-1.9s0.9-1.3,1.4-1.9s0.9-1.3,1.3-1.9
		s0.8-1.2,1.2-1.9c0.2-0.3,0.4-0.6,0.6-0.9c0.2-0.3,0.4-0.7,0.6-1l0.1-0.1c0.3-0.5,0.6-1,0.9-1.5c0.2-0.3,0.3-0.6,0.5-0.8
		c0.2-0.3,0.3-0.6,0.4-0.8c0.3-0.5,0.6-1.1,0.8-1.6s0.5-1,0.7-1.5c0.1-0.3,0.3-0.6,0.4-1c0.1-0.1,0.1-0.3,0.1-0.4
		c0,0-0.1,0.1-0.2,0.2c-0.1,0-0.1,0.1-0.2,0.2l-0.1,0.1c0,0-0.1,0-0.1,0.1c-0.1,0.1-0.2,0.2-0.3,0.3c-0.4,0.3-0.8,0.8-1.4,1.3
		c0,0,0,0-0.1,0.1s-0.2,0.2-0.4,0.3c-0.3,0.3-0.7,0.7-1.1,1c-9.6,8.6-38.7,32.1-81.4,41.1c-2.8,1.7-7.7,9.7-7.7,9.7
		s-27.1,4.3-32.4,6.2c-5.3,2-10.3,16-1.2,21c0.5,0.3,0.9,0.5,1.4,0.8c0.4,0.2,0.8,0.5,1.1,0.7c0.1,0,0.2,0.1,0.3,0.2
		c0.4,0.2,0.7,0.5,1.1,0.7c0.4,0.3,0.8,0.5,1.2,0.8c0.3,0.2,0.6,0.4,0.9,0.6c1.3,0.9,2.5,1.7,3.6,2.6c1.9,1.5,3.5,2.9,4.8,4.1
		c0.1,0.1,0.3,0.3,0.4,0.4c0.4,0.4,0.7,0.7,1,1.1c0.2,0.2,0.4,0.4,0.5,0.6c0.1,0.1,0.2,0.2,0.2,0.3c0.1,0.1,0.1,0.1,0.1,0.2l0,0
		c0,0.1,0.1,0.1,0.1,0.2s0.1,0.1,0.1,0.2s0.1,0.1,0.1,0.2c0,0,0,0,0-0.1c0,0,0,0,0-0.1v-0.1c0-0.1,0-0.1,0-0.2s0-0.2-0.1-0.3
		c0-0.1,0-0.2,0-0.2c0-0.2-0.1-0.3-0.1-0.5c0-0.1,0-0.2,0-0.3c-0.1-0.3-0.1-0.7-0.1-1s-0.1-0.6-0.1-0.9c0-0.1,0-0.2,0-0.3
		c0-0.3,0-0.5-0.1-0.8c0-0.4,0-0.7,0-1.1c0-0.1,0-0.1,0-0.2c0-0.4,0-0.7,0-1.1c0-0.2,0-0.5,0-0.7s0-0.4,0.1-0.5c0-0.1,0-0.2,0.1-0.3
		c0-0.1,0-0.3,0.1-0.4c0-0.2,0.1-0.4,0.1-0.6c0-0.1,0.1-0.2,0.1-0.4c0-0.1,0.1-0.2,0.1-0.2l0,0c0-0.1,0.1-0.2,0.1-0.3
		c0,0,0-0.1,0.1-0.1c0.1-0.1,0.2-0.2,0.3-0.4l0,0c0,0,0.3,0.3,0.8,0.9c0.1,0.1,0.2,0.3,0.4,0.4c0.1,0.2,0.3,0.4,0.5,0.6
		s0.3,0.4,0.5,0.6c0.4,0.5,0.8,0.9,1.1,1.4c0.5,0.6,1,1.2,1.4,1.8c0.9,1.2,1.6,2.3,1.9,3c0,0-0.2-3.2,0.5-6.2
		c0.1-0.6,0.3-1.2,0.5-1.7c0-0.1,0-0.1,0.1-0.2c0.3-0.8,0.7-1.5,1.2-2.1c0.2-0.2,0.4-0.4,0.6-0.6s0.4-0.4,0.6-0.6
		c0.1-0.1,0.2-0.2,0.4-0.3l0,0c0.3-0.2,0.5-0.5,0.8-0.7s0.6-0.4,0.9-0.6s0.6-0.4,0.9-0.6c1.7-0.9,3.4-1.6,5-1.6
		c0.8,0,1.6,0.2,2.2,0.6c0.2,0.1,0.4,0.3,0.5,0.4l0,0c0.2,0.2,0.4,0.3,0.5,0.5c0.3,0.3,0.6,0.7,0.9,1.1c0.1,0.2,0.3,0.4,0.4,0.6
		s0.3,0.4,0.4,0.6c0.1,0.1,0.1,0.2,0.2,0.4v0.1c0.1,0.2,0.2,0.4,0.3,0.6c0.1,0.1,0.1,0.3,0.2,0.4l0,0c0.1,0.3,0.3,0.6,0.4,0.8l0,0
		c0.1,0.1,0.1,0.3,0.2,0.4c0,0.1,0.1,0.2,0.1,0.4c0.1,0.1,0.1,0.2,0.1,0.3c0.1,0.1,0.1,0.2,0.1,0.3c0,0.1,0,0.1,0.1,0.2
		c0,0.1,0,0.1,0,0.2s0,0.1,0,0.1s0-0.1,0-0.2s0-0.2,0-0.3c0-0.2,0.1-0.4,0.1-0.7c0-0.2,0.1-0.4,0.1-0.6c0-0.3,0.1-0.7,0.2-1
		c0.1-0.6,0.2-1.2,0.4-1.9c0.1-0.3,0.1-0.5,0.2-0.8c0-0.1,0.1-0.3,0.1-0.4c0.1-0.4,0.2-0.7,0.3-1.1c0.1-0.1,0.1-0.3,0.2-0.4
		s0.1-0.3,0.2-0.4s0.1-0.2,0.2-0.3c0.1-0.2,0.2-0.4,0.3-0.5c0,0,0-0.1,0.1-0.1c0,0,0,0,0.1-0.1l0,0c0,0,13.3,1.2,13.8,1.5
		s1.8,1.5,1.8,1.5s0,0-0.1,0c0,0,0,0-0.1,0l0,0c-0.1,0-0.1,0-0.2,0s-0.2,0.1-0.3,0.1h-0.1c-0.1,0-0.1,0-0.2,0.1
		c-0.1,0-0.3,0.1-0.4,0.2c-0.3,0.1-0.7,0.3-1,0.5c-0.1,0.1-0.3,0.2-0.4,0.2c-0.3,0.2-0.5,0.4-0.8,0.6c-0.2,0.1-0.3,0.2-0.5,0.4
		c-0.2,0.2-0.5,0.4-0.7,0.6c-0.1,0.1-0.2,0.2-0.3,0.3c-0.1,0-0.1,0.1-0.2,0.2s-0.2,0.2-0.2,0.3c-0.2,0.2-0.3,0.4-0.5,0.6
		s-0.3,0.4-0.5,0.6c-0.1,0.1-0.2,0.2-0.3,0.3c-0.1,0.1-0.2,0.3-0.3,0.4c-0.2,0.3-0.4,0.6-0.6,0.9c-0.1,0.2-0.2,0.3-0.3,0.5
		c-0.3,0.4-0.5,0.9-0.8,1.3c-0.4,0.6-0.7,1.3-1,2c-0.4,0.7-0.7,1.5-1,2.3c-0.1,0.2-0.2,0.4-0.2,0.6c-0.3,0.9-0.7,1.8-1,2.7
		c-0.1,0.2-0.2,0.5-0.2,0.7c-0.2,0.5-0.4,1-0.6,1.5s-0.4,1-0.7,1.6c-0.2,0.5-0.4,1-0.7,1.5c-0.2,0.5-0.4,0.9-0.6,1.4
		c-0.1,0.2-0.2,0.4-0.3,0.6c-0.1,0.2-0.2,0.4-0.3,0.5s-0.2,0.3-0.2,0.5c-0.1,0.2-0.2,0.4-0.3,0.5l-0.1,0.1c-0.1,0.2-0.1,0.2-0.1,0.2
		l0,0l-4.5-2.5l-4.8,8.8l0,0l0,0c0,0,0,0-0.1,0c0,0,0,0-0.1,0s-0.1-0.1-0.2-0.1l0,0c-0.1,0-0.1-0.1-0.2-0.2l-0.1-0.1
		c-0.1-0.1-0.2-0.1-0.3-0.2c-0.1-0.1-0.2-0.2-0.3-0.2c-0.1,0-0.1-0.1-0.2-0.1l0,0c-0.1-0.1-0.2-0.2-0.3-0.3
		c-0.1-0.1-0.2-0.2-0.3-0.3l0,0c-0.5-0.4-0.9-0.9-1.1-1.3l-0.1-0.1c0,0-0.1-0.1-0.1-0.2s-0.1-0.2-0.1-0.2c0-0.1,0-0.2,0-0.3v0.1
		l-3.4,5.7l0,0l-7-3.9l0,0l1.6,3.7v0.1l0,0l0,0l-7.5-4.2l0,0c0,0,0,0.2,0,0.4c0,0,0,0.1,0,0.2s0,0.2,0.1,0.4c0,0.1,0,0.2,0,0.2
		c0,0.2,0.1,0.5,0.1,0.8c0,0.2,0.1,0.4,0.1,0.6s0.1,0.4,0.1,0.5c0.1,0.4,0.2,0.8,0.3,1.2c0.1,0.2,0.1,0.4,0.2,0.6
		c0.1,0.3,0.2,0.6,0.3,0.9c0.1,0.3,0.2,0.6,0.3,0.8c0.1,0.3,0.2,0.6,0.4,0.9c0.1,0.3,0.3,0.6,0.4,0.9c0.2,0.5,0.5,1,0.8,1.5
		c0.2,0.2,0.3,0.5,0.5,0.8c0.1,0.1,0.2,0.3,0.3,0.5c0.1,0.2,0.2,0.3,0.3,0.5c0.2,0.3,0.5,0.6,0.7,0.9s0.5,0.6,0.8,0.9
		c0.1,0.2,0.3,0.3,0.4,0.5s0.3,0.3,0.4,0.4c0.2,0.2,0.4,0.4,0.5,0.5s0.3,0.3,0.5,0.4c0.3,0.3,0.6,0.5,1,0.8c0.2,0.1,0.3,0.2,0.5,0.4
		l0.5,0.4c0.1,0.1,0.3,0.2,0.5,0.3c0.2,0.1,0.5,0.3,0.7,0.4l0,0c0.2,0.1,0.5,0.2,0.7,0.4c0.1,0,0.2,0.1,0.3,0.1
		c0.9,0.5,1.8,0.9,2.7,1.2c0.1,0.1,0.3,0.1,0.5,0.2c0.5,0.2,1,0.4,1.5,0.6c0.7,0.3,1.4,0.6,2.1,0.8c0.3,0.1,0.5,0.2,0.8,0.3
		c0.8,0.2,1.5,0.5,2.2,0.6c0.2,0.1,0.5,0.1,0.7,0.2s0.4,0.1,0.6,0.2c0.5,0.1,0.9,0.2,1.3,0.3c0.3,0.1,0.7,0.1,1,0.2
		c0.1,0,0.1,0,0.2,0c0.3,0.1,0.6,0.1,0.9,0.1c0.1,0,0.1,0,0.1,0c0.3,0,0.6,0.1,0.9,0.1c0,0,0,0,0.1,0c0.5,0.1,1,0.1,1.5,0.1
		c0.4,0,0.8,0,1.2,0c0.2,0,0.4,0,0.6,0s0.4,0,0.5,0l0,0c1.2,0,2.3,0,3.4-0.1l0,0l-0.1-0.1c-0.1-0.1-0.3-0.2-0.4-0.4
		c-0.1-0.1-0.1-0.1-0.2-0.2s-0.1-0.1-0.2-0.2c-0.2-0.2-0.3-0.3-0.5-0.5s-0.4-0.4-0.6-0.6s-0.4-0.5-0.6-0.7s-0.4-0.5-0.6-0.8
		c-0.1-0.1-0.2-0.3-0.3-0.4c-0.1-0.2-0.3-0.4-0.4-0.6c-0.1-0.1-0.2-0.2-0.2-0.3l-0.1-0.1c-0.2-0.3-0.3-0.5-0.5-0.8s-0.4-0.7-0.5-1.1
		c-0.2-0.4-0.3-0.7-0.5-1.1c-0.1-0.2-0.1-0.4-0.2-0.6c-0.1-0.4-0.2-0.8-0.3-1.2c-0.2-1-0.3-2-0.3-3.1l0,0v-0.1c0-0.2,0-0.4,0.1-0.5
		c0-0.2,0.1-0.4,0.1-0.6s0.1-0.4,0.1-0.6c0-0.1,0.1-0.2,0.1-0.4c0-0.2,0.1-0.3,0.1-0.5c0.1-0.3,0.2-0.7,0.4-1c0.3-0.7,0.7-1.3,1.2-2
		c0.1-0.1,0.1-0.2,0.2-0.3l0,0c0.1-0.2,0.3-0.4,0.5-0.5c0.3-0.3,0.6-0.7,0.9-1c0.2-0.2,0.3-0.3,0.5-0.5c0,0,0,0,0.1-0.1
		c0,0,0,0,0.1-0.1l0,0l0,0c0.2-0.2,0.5-0.4,0.7-0.6c0.1-0.1,0.2-0.2,0.4-0.3c0.1-0.1,0.3-0.2,0.4-0.3c0.3-0.2,0.6-0.4,0.9-0.6
		s0.6-0.4,0.9-0.6c0.1-0.1,0.2-0.1,0.3-0.2c0.1-0.1,0.2-0.1,0.3-0.2c0.2-0.1,0.4-0.3,0.7-0.4c0.3-0.2,0.6-0.4,1-0.5
		c0.3-0.2,0.7-0.3,1-0.5c0,0,0.1,0,0.1-0.1c1.1-0.5,2.2-1,3.5-1.5c0.3-0.1,0.5-0.2,0.8-0.3c0.1,0,0.2-0.1,0.3-0.1
		c0.4-0.1,0.7-0.1,1.1-0.2c0.3,0,0.5-0.1,0.8-0.1s0.5-0.1,0.8-0.1c0.5,0,1-0.1,1.5-0.1l0,0c0.6,0,1.3,0,1.9,0.1c0,0,0,0,0.1,0
		c0.2,0,0.5,0,0.7,0.1l0,0c0.2,0,0.4,0.1,0.5,0.1c0.2,0,0.4,0.1,0.5,0.1c0.2,0.1,0.5,0.1,0.7,0.2c0.1,0,0.3,0.1,0.4,0.1
		s0.2,0.1,0.4,0.1c0.1,0,0.2,0.1,0.3,0.1h0.1c2.5,0.8,5,2,7.6,3.2c0.5,0.2,1,0.5,1.5,0.7l0,0c1,0.4,2,0.9,3.1,1.3
		c0.8,0.3,1.6,0.6,2.5,0.8c0.4,0.1,0.8,0.2,1.2,0.4c0.7,0.2,1.4,0.4,2.1,0.5c0.7,0.2,1.4,0.3,2.1,0.4c2.3,0.4,4.4,0.5,6.2,0.5
		c0.7,0,1.4,0,2.1-0.1c0.3,0,0.6,0,0.9-0.1c0.5,0,0.9-0.1,1.3-0.2c0.2,0,0.4-0.1,0.6-0.1s0.5-0.1,0.7-0.1c0.3,0,0.5-0.1,0.8-0.2
		c0.2-0.1,0.5-0.1,0.7-0.2c0.5-0.1,1-0.3,1.4-0.4c0.7-0.2,1.3-0.5,1.8-0.8c0.2-0.1,0.4-0.2,0.5-0.3c0.1,0,0.2-0.1,0.2-0.1
		c0.1,0,0.1-0.1,0.2-0.1c0.3-0.2,0.5-0.3,0.6-0.4s0.2-0.2,0.2-0.2l0,0l0,0l0,0c0,0-0.2,0-0.4,0h-0.2c-0.2,0-0.4,0-0.6,0
		c-0.3,0-0.6,0-1,0c-0.2,0-0.4,0-0.6,0s-0.5,0-0.8-0.1c-0.3,0-0.7-0.1-1-0.1c-0.1,0-0.2,0-0.2,0h-0.1c-0.2,0-0.3,0-0.5-0.1H480
		c-0.2,0-0.3,0-0.5-0.1c-0.3,0-0.7-0.1-1-0.2c-0.1,0-0.3,0-0.4-0.1c-0.3-0.1-0.6-0.1-1-0.2c-0.3-0.1-0.5-0.1-0.8-0.2
		c-0.2,0-0.3-0.1-0.5-0.1c-0.2-0.1-0.5-0.2-0.8-0.2c-0.2-0.1-0.4-0.1-0.6-0.2c-0.1,0-0.2-0.1-0.4-0.1c-0.4-0.1-0.8-0.3-1.2-0.5h-0.1
		c-0.2-0.1-0.5-0.2-0.7-0.3c0,0-0.1,0-0.1-0.1c-0.2-0.1-0.4-0.2-0.5-0.3c-0.2-0.1-0.4-0.2-0.6-0.3c0,0-0.1,0-0.1-0.1
		c-0.3-0.2-0.5-0.3-0.8-0.5s-0.5-0.4-0.8-0.6c-0.3-0.3-0.7-0.6-1-0.9c-0.2-0.1-0.3-0.3-0.5-0.5c-0.1-0.1-0.2-0.2-0.2-0.3
		c-0.1-0.1-0.2-0.2-0.2-0.3c-0.1-0.1-0.2-0.2-0.3-0.4c-0.2-0.2-0.3-0.5-0.5-0.7c0-0.1-0.1-0.1-0.1-0.2c0,0-0.1-0.1-0.1-0.2
		c-0.1-0.1-0.1-0.2-0.2-0.4c-0.1-0.2-0.2-0.5-0.3-0.8c-0.1-0.3-0.2-0.5-0.3-0.8c-0.2-0.6-0.3-1.2-0.4-1.8c-0.3-1.9-0.2-4,0.4-6.5
		c0-0.2,0.1-0.3,0.1-0.5c0-0.1,0.1-0.3,0.1-0.4s0-0.2,0.1-0.2c0-0.1,0.1-0.2,0.1-0.3c0,0,0-0.1,0.1-0.1c0-0.1,0-0.1,0.1-0.2
		c0-0.1,0.1-0.3,0.2-0.4s0.1-0.2,0.2-0.4c0.1-0.2,0.2-0.4,0.3-0.7c0-0.1,0.1-0.2,0.1-0.2c0.1-0.2,0.2-0.3,0.3-0.5
		c0-0.1,0.1-0.2,0.2-0.2l0,0c0.1-0.1,0.2-0.3,0.3-0.4l0,0l0,0c0.2-0.3,0.4-0.5,0.6-0.8c0.2-0.2,0.3-0.4,0.5-0.6s0.5-0.5,0.7-0.7
		s0.4-0.4,0.6-0.5l0,0c0.5-0.4,1.1-0.8,1.7-1.2c0.2-0.1,0.4-0.2,0.6-0.4c0.2-0.1,0.4-0.2,0.5-0.3c0.1,0,0.2-0.1,0.3-0.2
		c0.2-0.1,0.3-0.2,0.5-0.2c0.2-0.1,0.5-0.2,0.7-0.3c0.3-0.1,0.7-0.3,1-0.4c0.2-0.1,0.5-0.2,0.8-0.3c0.2-0.1,0.5-0.2,0.7-0.2h0.1
		c0.5-0.1,1-0.3,1.5-0.4c0.4-0.1,0.7-0.2,1.1-0.3c0.4-0.1,0.8-0.2,1.1-0.2c0.3-0.1,0.6-0.1,0.9-0.2c0.4-0.1,0.8-0.1,1.2-0.2
		c0.5-0.1,1-0.2,1.5-0.2c0.4,0,0.8-0.1,1.2-0.1c0.4,0,0.8-0.1,1.2-0.1c0.7-0.1,1.5-0.1,2.2-0.2c0.7,0,1.4-0.1,2.2-0.1l0,0
		c0.4,0,0.7,0,1.1,0s0.7,0,1.1,0c0.7,0,1.5,0,2.2,0c1.5,0,2.9,0,4.4,0c0.7,0,1.4,0,2.1,0c2.1,0.1,4.2,0.1,6.1,0.2c1.2,0,2.4,0,3.5,0
		c2.4,0,4.4,0.2,6,0c0.3,0,0.6-0.1,0.9-0.1l5.2-1.1l0.3-0.1l0,0h0.1c0.2-0.1,0.4-0.1,0.7-0.2c3.1-1,6.3-2.5,9.3-4.6s5.9-4.8,8.1-8
		c2.3-3.1,3.9-6.6,4.9-10.1s1.5-6.8,1.5-10C549.3,246.3,548,240.8,546.2,235.9z M444.4,256.5l-0.1,0.1c0,0,0,0-0.1,0.1
		c-0.1,0.2-0.3,0.3-0.4,0.5c-6.2,6.6-11.5,8.5-15.6,8.5c-5.4,0-8.7-3.5-9.3-4.2c-0.1-0.1-0.1-0.1-0.1-0.1c0.4,0,0.8-0.1,1.2-0.1
		c0.3,0,0.6-0.1,1-0.1c0.8-0.1,1.6-0.3,2.5-0.4c0.4-0.1,0.9-0.2,1.3-0.3c0.5-0.1,1-0.2,1.4-0.3c0.3-0.1,0.6-0.1,0.9-0.2h0.1
		c0.8-0.2,1.6-0.3,2.4-0.5c0.2,0,0.3-0.1,0.5-0.1c0.3-0.1,0.7-0.2,1-0.2c0.3-0.1,0.7-0.2,1-0.2c0.4-0.1,0.7-0.2,1.1-0.2
		c0.3-0.1,0.6-0.1,0.9-0.2c0.6-0.2,1.3-0.3,1.9-0.4c0.2-0.1,0.5-0.1,0.7-0.2c0.1,0,0.2,0,0.2-0.1c0.6-0.1,1.2-0.3,1.8-0.4
		c0.7-0.2,1.4-0.3,2-0.4c0.2-0.1,0.4-0.1,0.6-0.1c0.3-0.1,0.6-0.1,0.9-0.2c0.2,0,0.4-0.1,0.5-0.1c0.2,0,0.3,0,0.4-0.1
		c0.1,0,0.2,0,0.3-0.1c0.3,0,0.5-0.1,0.7-0.1c0.1,0,0.1,0,0.1,0C444.3,256.4,444.4,256.4,444.4,256.5
		C444.5,256.3,444.5,256.4,444.4,256.5z M513.6,250.4c0,0-0.1,0.1-0.3,0.1l0,0C513.7,250.3,513.8,250.3,513.6,250.4z"/>
	<path class="st1" d="M565.5,512.3c-1.4-1.6-7.6-3.9-12-4.6c-4.5-0.8-4.4,6.4-6.5,9.2c-2.1,2.9-4.1,2.5-6.2,2.9
		c-2.1,0.4-2.7,2.7-2.7,2.7s-4.5,3.1-3.4,0.7c1.1-2.4,1.4-4.9,4.7-7.2c2.3-1.6,3.7-3.4,4.2-5.3l0,0c0.2-0.9,0.1-1.7-0.1-2.6
		c-0.2-0.5-0.2-0.9-0.3-1.2l0,0c-0.3-1.5,0.1-1.8-1.3-6.8c-0.2-0.8-0.5-1.4-0.8-1.8c-0.5-0.7-1-1-1.6-1.1c-1.9-0.2-4.2,2.3-5.8,2.6
		c-2.3,0.4-5.4,2.8-6.2,6.5c-0.9,3.7-0.7,6.9-1.4,11.4s-4.8,4.2-12.6,5.8c-3.4,0.7-8-2.5-12.1-6.3l2.3-4.1l2.8-5.4
		c1.8-3.6,3.5-7.3,5.1-11.1c1.6-3.8,3.1-7.6,4.5-11.5c0.7-1.9,1.4-3.9,2-5.9c0.7-2,1.3-4,1.8-6c2.3-8.1,4.2-16.5,5.3-25.2
		c0.3-2.2,0.5-4.4,0.7-6.6l0.3-3.3l0.2-3.4c0.1-2.3,0.2-4.4,0.2-6.7c0-2.2,0-4.5-0.2-6.9c-0.2-4.7-0.7-9.7-1.7-15.2
		s-2.6-11.5-5.4-18.1c-1.4-3.3-3.2-6.7-5.5-10.2c-2.2-3.5-5-7-8.2-10.2s-6.8-6.2-10.7-8.6c-3.8-2.4-7.8-4.4-11.6-5.8
		c-7.7-2.8-14.6-3.9-20.5-4.3c-6-0.3-11.1-0.1-15.8,0.4c-9.3,1-16.8,2.7-23.7,4.4c-6.8,1.6-13,3.2-18.9,4.6l7.9-14.5
		c-0.6-0.2-1.1-0.4-1.7-0.6l-3.2-1.2c-1.4-0.6-2.9-1.2-4.5-2c-14-6.8-15.1-22.2-15.1-22.9l-0.6-10.3h0.1l2.2,1.2v-0.1l-1.6-3.7h0.1
		l3.3,1.8v-0.1l-0.4-0.9c-0.5-0.8-2.3-2.5-5-4.7l-31.7,56.4c-0.5-0.4-1.1-0.8-1.6-1.2c-0.5-0.5-1-1-1.5-1.5
		c-1.4-1.6-2.8-3.7-4.1-6.2c-1.7-3.5-3-7.8-3.9-12.5c-1.8-9.5-1.6-20.7,0.2-31.7c3.6-22.2,13.3-44.6,27.5-61.7
		c7.1-8.5,15.4-15.7,24.5-20.6c9-5,18.9-7.8,29.2-8.2c1.3-0.1,2.6-0.1,3.9,0l2,0.1l2.3,0.2c0.7,0,1.5,0.1,2.2,0.1l-21,37.4l-0.2,0.3
		c1.3-1.6,1.7-2.2,3-3l1.1-0.9l25.7-16.8c0.1-0.1,8.7-5.4,18.4-12.9c7.3-5.7,15.3-12.5,20.8-19.4l12.4-11.7l5.7-5.4l11.9-21.9
		c1.1,0.1,2.2,0.1,3.3,0.1c28.3-0.3,50.9-23.5,50.6-51.8c-0.3-28.3-23.5-50.9-51.8-50.6c-25.2,0.3-46,18.7-49.9,42.8
		c3.1-3.1,10.7-8.8,21.2-4.9c5-11,16.1-18.7,29-18.9c17.8-0.2,32.4,14.1,32.6,31.9c0.2,17.8-14.1,32.4-31.9,32.6
		c-17.8,0.2-32.4-14.1-32.6-31.9c0-2,0.1-4,0.5-5.9c-2.5,1.2-5,3.4-6.5,7.4c0.5,1.8,1.6,7.9-4.7,13.3c-3.8,3.3-3.5,4.2-3.2,4.8
		c0.2,0.6,0.5,1.4,0.1,2.5c1.7,3.6,3.9,6.9,6.4,10l-7.3,13.1c-0.6-0.4-1-0.7-1-0.7l-3.9-9.9l0.8-2.4c0,0,2.1-6.7,3.4-9.8l0,0
		c0-0.1,0.1-0.2,0.1-0.3s0.1-0.2,0.1-0.2s0-0.1,0.1-0.1c0-0.1,0.1-0.2,0.1-0.2l0,0l0,0c0,0,0-0.1,0.1-0.1v-0.1
		c0-0.1,0.1-0.2,0.1-0.3s0-0.2,0-0.2c0-0.7-0.6-1.2-0.6-2.1l0,0c0-0.1,0-0.1,0-0.2c0-0.1,0-0.1,0.1-0.2c0-0.1,0-0.2,0.1-0.3
		c0-0.1,0.1-0.2,0.1-0.3s0.1-0.2,0.2-0.3s0.1-0.2,0.2-0.3c0.2-0.3,0.5-0.6,0.8-1c0.1-0.1,0.2-0.2,0.4-0.4c0.1-0.1,0.3-0.3,0.4-0.4
		c0.1-0.1,0.3-0.3,0.4-0.4c0.3-0.3,0.7-0.6,1-0.9c0.4-0.3,0.8-0.7,1.1-1.1c0.2-0.2,0.3-0.4,0.5-0.5c0.1-0.2,0.3-0.4,0.4-0.5
		c0.2-0.3,0.4-0.5,0.6-0.8c0.1-0.1,0.2-0.3,0.2-0.4c0.6-1,1-2,1.3-3c0.1-0.2,0.1-0.4,0.1-0.6c0.1-0.4,0.1-0.8,0.2-1.2
		c0-0.4,0.1-0.7,0.1-1.1c0-0.5,0-1-0.1-1.4c-0.3,0-0.7-0.1-1.2-0.3l0,0c-0.1,0-0.3-0.1-0.3-0.1c-0.1,0-0.2-0.1-0.3-0.1
		c-0.8-0.2-1.7-0.6-2.6-1.2c-1.1-0.6-2.1-1.4-3.2-2.2l-0.1-0.1c-1.3-0.9-2.3-1.8-3.2-2.5c-0.3-0.2-0.6-0.5-0.8-0.7
		c-0.3-0.2-0.5-0.4-0.7-0.6l-0.3-0.3c-0.4-0.4-0.7-0.7-1-1c-0.3,0-0.6,0.1-1,0.1c-0.3,0-0.6,0.1-0.9,0.1c-0.2,0-0.4,0.1-0.5,0.1
		c-0.2,0-0.4,0.1-0.6,0.1c-0.4,0.1-0.8,0.2-1.1,0.4c-0.1,0-0.2,0.1-0.2,0.1c-0.1,0-0.1,0.1-0.2,0.1c-0.1,0.1-0.2,0.1-0.3,0.2
		c-0.1,0.1-0.2,0.2-0.3,0.2l-0.2,0.2c0,0.1-0.1,0.1-0.1,0.2c-0.1,0.2-0.2,0.4-0.2,0.6c0,0.1,0.1,0.4,0.2,0.6c0.2,0.4,0.4,1,0.7,1.6
		c0.1,0.2,0.2,0.4,0.3,0.6c0.1,0.3,0.3,0.6,0.4,0.9c0.1,0.2,0.2,0.3,0.2,0.5c0.3,0.6,0.7,1.3,1,1.8c0.8,1.3,0.9,1.9,0.6,2.8
		c0,0.1-0.1,0.2-0.1,0.2c0,0.1-0.1,0.2-0.1,0.3c-0.1,0.1-0.1,0.3-0.2,0.5s-0.2,0.4-0.3,0.6c-0.1,0.2-0.2,0.4-0.3,0.7
		c-0.1,0.2-0.2,0.5-0.4,0.8c-0.1,0.1-0.1,0.3-0.2,0.4c-0.1,0.2-0.2,0.4-0.3,0.6c-0.2,0.3-0.3,0.7-0.4,0.9c0,0.1-0.1,0.3-0.1,0.4
		c0,0.1-0.1,0.3-0.1,0.4c-0.1,0.5-0.1,0.9-0.1,1.2l0,0c0.1,0.9,0.5,1.7,0.7,3.2c0.5,3-2.1,6.9-3,6.6s-2.3-3.5-2.9-5.1
		c-0.7-1.6-0.8-4.3-1.3-5s-4.8-7-4.8-7s-1.6-8.3-2.5-9.8c-0.8-1.3-2.2-3-4.6-6.6c-0.3-0.4-0.6-0.9-0.9-1.3c-0.4,0.1,0,0-0.8,0.2
		s-4.4,1.1-6.1,0.7c-1-0.2-3.1-0.9-5-1.1c-1.2-0.2-2.4-0.1-3.1,0.3c-0.1,0.1-0.2,0.1-0.3,0.2c-1.5,1.5-3.5,7.7-4.1,12.2
		c-0.5,4.5,6.6,4.1,9.5,6.1c3,2,2.6,4,3.2,6c0.5,2.1,2.8,2.6,2.8,2.6s3.3,4.4,0.8,3.3c-2.4-1-5-1.2-7.4-4.4
		c-1.7-2.2-3.6-3.6-5.5-3.9c-0.9-0.2-1.7-0.1-2.6,0.2c-0.5,0.2-0.9,0.3-1.2,0.4l0,0l0,0c-1.4,0.3-1.8,0-6.7,1.6
		c-0.8,0.3-1.3,0.6-1.8,0.9c-0.7,0.5-1,1.1-1,1.7c-0.1,1.9,2.5,4.1,2.9,5.6c0.5,2.3,3,5.2,6.8,5.9c3.7,0.7,6.9,0.4,11.4,0.9
		s4.4,4.6,6.4,12.3c1.7,6.9-12.7,19.8-15.8,22.5l0,0c-7.3,0.1-14.6,0.9-21.8,2.5c-8.3,1.8-16.4,4.7-24,8.3s-14.7,8.1-21.3,13
		c-6.6,4.9-12.6,10.5-18.1,16.3c-11,11.7-20,24.8-27.3,38.7c-7.2,13.9-12.7,28.7-16.3,44.2c-1.8,7.8-3.1,15.7-3.8,23.9
		c-0.7,8.2-0.7,16.7,0.2,25.4c0.9,8.7,2.8,17.7,6.3,26.8c1.4,3.7,3.1,7.4,5.2,11.1l-75.4,38.8l-13.4,45c0-0.1-0.1-0.1-0.2-0.1
		c-1.8-0.4-3.7-0.1-5.7,0.4c-2,0.5-1.2,2.2-2.2,4.5c-0.5,1-0.8,1.9-1.1,2.7c0,0,0,0.1,0,0.2c-0.1,0.4-0.2,0.7-0.4,1.1
		c-0.2,0.5-0.4,1-0.6,1.5c-0.1,0.2-0.2,0.4-0.3,0.7c-1,2.1-2.6,11.5-2.6,11.5s-2.9-3.1-3.7-4.9c-0.8-1.7,0-1,0-4.8
		c0-3.4-1-2.7-1.6-4c-0.1-0.2-0.2-0.4-0.2-0.7c-0.1-0.2-0.1-0.5-0.2-0.8c-4.5,0-8.5,0.6-8.5,0.6c-3-9,5.1-10.6,5.1-10.6
		s0.4-0.7-0.3-2c-0.4-0.7-1.1-1.5-2.4-2.4c-3.7-2.7-3.2-0.8-8.2,5.4s1.9,11.5,1.9,11.5s-0.7,1.5-1.1,2.5c-0.5,1,0,2.2-0.7,4.2
		s3.7,2.3,4.1,3.1c0.4,0.8,2.1,4,1.8,5.2c4.4,1.1,10.9,3.2,14.5,6.7l2.7,2.7l0.5,0.5l-0.6-0.1l-3.9-0.7c-0.1,0-11.4-2-18.4,5
		l-0.7,0.7l0,0c0,1-0.3,2.2-0.9,3.4c-0.9,2-0.4,10.5-6.3,10.8c-4.3,0.2-12.2,11.7-16.1,17.8c-2.9,0.1-5.9,0.3-8.8,0.6
		c-8.3,0.9-16.8,2.5-25.3,5.3c-4.2,1.4-8.5,3.1-12.7,5.1c-4.2,2.1-8.3,4.5-12.2,7.2c-7.9,5.5-15.1,12.5-20.7,20.4
		c-2.9,3.9-5.3,8.1-7.4,12.3c-1.1,2.1-2,4.3-2.9,6.4c-0.8,2.1-1.7,4.3-2.4,6.5c-2.9,8.7-4.4,17.3-5,25.7c-0.2,2.1-0.2,4.2-0.4,6.2
		c0,2-0.1,4.1,0,6.1l0.1,3c0,1,0.1,2,0.1,2.9l0.4,5.6l0.2,2.8c0.1,0.9,0.2,1.9,0.3,2.8l0.7,5.6c0.2,1.9,0.6,3.7,0.9,5.6
		c0.3,1.9,0.6,3.7,1,5.6c3,14.8,7.5,29.5,14.4,43.2c0.4,0.6,0.7,1.3,1.1,2l0,0c3.5,6.2,8.7,15,12.8,20.8c0.2,0.2,0.3,0.4,0.5,0.7
		s0.4,0.6,0.7,0.9c0.1,0.1,0.1,0.2,0.2,0.3c9.4,12.2,18.6,19.8,30.9,28.3c4.7,3.2,9.7,6.2,14.8,8.8c0.5,0.2,0.9,0.5,1.4,0.7
		c1.1,0.6,2.3,1.1,3.4,1.7c5.3,2.5,10.4,3.9,15.9,5l0,0c1.4,0.3,2.8,0.6,4.2,0.9c-1-0.7-2-1.5-3-2.3c-5.1-4-10.6-8.6-15.7-13.5
		c-0.4-0.4-0.9-0.9-1.3-1.3c-4.8-4.7-9.1-9.6-12.2-14.4c-0.8-1.3-1.5-2.4-2.2-3.5c-2.4-3.9-3.6-6.2-4.6-8.8v-0.1l0,0
		c-0.1-0.2-0.2-0.4-0.3-0.7c-0.2-0.5-0.4-1-0.6-1.5c-0.1-0.2-0.1-0.3-0.1-0.3c-1-2.7-2-5.3-2.9-8c0,0,0,0,0-0.1
		c-0.2-0.4-0.3-0.9-0.5-1.4c-0.1-0.3-0.2-0.6-0.3-0.9c-0.2-0.7-0.5-1.5-0.7-2.3c0-0.1,0-0.1,0-0.2c-0.5-1.7-1-3.3-1.5-5
		c-1.1-4-2-8.1-2.9-12.1c-0.1-0.3-0.2-0.6-0.2-0.9l0,0c-0.1-0.6-0.2-1.2-0.3-1.7c-0.2-1.1-0.4-2.1-0.6-3.2c-2.1-12-3-24.1-3.3-36.2
		c0-3,0-6.1,0-9.1c0.1-3.1,0.1-6.1,0.3-9.1l0.2-4.6c0-0.8,0.1-1.5,0.1-2.1l0.2-2.1c0.1-1.4,0.3-2.7,0.5-4s0.3-2.6,0.6-3.9
		c0.9-5.1,2.1-9.8,3.8-14c0.4-1.1,0.8-2,1.3-3c0.5-0.9,0.9-1.9,1.4-2.8c0.5-0.9,1-1.8,1.5-2.6c0.6-0.8,1.1-1.6,1.7-2.4
		c2.3-3.1,5-5.8,8.2-8.1c1.6-1.2,3.3-2.3,5.2-3.3s3.9-2,6-2.8c8.5-3.4,19.1-5.3,30.4-5.6l14.7-49.4c-2.5-0.3-4.9-0.6-7.4-0.8
		c0.5-1.5,0.8-3.1,1.6-4.9c1.5-3.3,4-3.7,4.6-4s5.6-4.2,5.6-4.2s-0.3,3.6,0.3,6.3c0.4,1.7,0.1,1.9-0.4,2.5c-0.3,0.3-0.6,0.7-1,1.5
		s-0.7,1.7-1,2.8c0,0.1-0.1,0.2-0.1,0.3s-0.1,0.2-0.1,0.3c-0.1,0.2-0.1,0.4-0.2,0.6c-0.5,1.6-1.1,3.6-2.4,6.4
		c-2.5,5.6-3.1,5.5-2.8,8.6c0.2,2.1,2,3.1,3.6,3.1l-9.2,30.9l-1.8,6.1l-45,151.8c1,1.8,2.3,3.9,4.1,6.7c2.5,3.9,6.1,8.2,10.8,12.8
		l150.8-271.6l-65.5-68.4l70.5,59.7l39.8-68.3c2.4,1.1,4.9,2.1,7.3,3l-38.5,70.3l89.2,28l-94-19.6L144,765
		c4.6,4.5,10.1,9.2,16.4,14.2l136.4-148.4l5.3-5.8l47.3-51.4l10.2-11.2l40.7-44.3l-1-92.1l0,0c4.5,0,9-0.2,13.2-0.4
		c7.5-0.3,14.6-0.9,21.1-1.2c4.7-0.3,9.2-0.5,12.9-0.4c0,0.4,0,0.7,0.1,1.1c0,1,0.1,2.1,0.1,3.3c0,1.1,0,2.4,0,3.5v1.7l-0.1,1.7
		c0,1.1-0.2,2.3-0.3,3.5c-0.9,9.5-3.2,19.8-6.6,30.1c-6.9,20.6-18,41.3-32.1,59.4c-7.1,9-15,17.4-23.6,24.6c-4.3,3.6-8.8,7-13.4,9.9
		c-2.8,1.8-5.6,3.5-8.5,5l-53.7,58.4c5.4,1,10.8,1.7,16.3,2.1c8.4,0.6,16.9,0.3,25.3-0.7c8.3-1,16.5-2.7,24.5-5
		c15.9-4.6,30.7-11.4,44.4-19.7c13.7-8.3,26.3-18,37.8-28.8s21.9-22.7,31.1-35.6c1.2-1.7,2.4-3.4,3.6-5.1l0,0
		c0.9,3.1,2.2,0.3,3.5,0.1c1.3-0.3,5.1-1.3,5.6,1s-0.8,2.6-2.2,6.4s-1.6,0.1-9.2,5.4c-5.9,4.2-3.4,10-2,12.4
		c0.4,0.7,0.7,1.1,0.7,1.1l0,0c9.4-6.8,12.7-0.2,14.2-0.7c0.4-0.1,0.9-0.5,1.4-1.1c1.5-1.5,3.3-3.9,3.3-3.9l10.1-3.5l2.4,0.9
		c0,0,8.5,3.1,10.6,4.3s2-3.2,7.5,3.7c3.8,4.8,8.1,5.2,10.4,5c1-0.1,1.7-0.3,1.7-0.3V564l0,0c0.3-3.3,8-10.6,8-10.6s0,0-0.1-2.1
		c0-0.3,0-0.7,0-1.1c-0.1-3.2-1.3-4.9-2.1-4.8c-0.8,0.2-3.8,1.3-6.2,2.6s-2.6,0.5-6.2-1.4c-3.6-1.9-3.7-0.9-6.8-0.5
		c-3,0.4-6.8-2.4-6.5-3.3c0.4-0.9,3.6-2.1,5.2-2.7c1.6-0.6,4.4-0.6,5.1-1.1c0.7-0.4,7.2-4.4,7.2-4.4s8.4-1.2,9.9-2
		c1.3-0.8,3.1-2,6.8-4.3c0.4-0.3,0.9-0.6,1.4-0.9c-0.1-0.4,0,0-0.2-0.8s-0.9-4.4-0.5-6.1c0.3-1,1-3.1,1.4-5c0.2-1.2,0.2-2.3-0.1-3.1
		C565.6,512.5,565.6,512.4,565.5,512.3z M442.3,171c0,0,1.7-0.7,4.8-1.8c3-1,0.2-2.2-0.1-3.5c-0.3-1.3-1.6-5.1,0.8-5.7
		c2.3-0.6,2.6,0.7,6.5,1.9c3.6,1.1,0.6,1.6,4.8,7.6l-2.6,4.7l0,0c-3.1-0.6-6.2-1.2-9.3-1.7c-1.8-0.3-3.6-0.6-5.4-0.8
		C442.1,171.3,442.3,171,442.3,171z M148.4,710.6l-2.7-7.2c0,0,9.9-30.5,11-31.2l2,9.1L148.4,710.6z M228.6,441.3l3.1,9.6l-27.2,88
		c0.1,0,0.2,0,0.2,0c1.7,0,3.2-0.8,4.3-1.5s1.7-1.5,1.8-1.5l2.9-3.4l-0.4,4.5c-0.7,8.1-8.5,12.6-12.6,14.4l-28.1,90.8l-4.7-8.5
		l24.8-78.7c0.2,0.1,0.3,0.1,0.4,0.2c1.2,0.5,2.6-1.5,3.5-2.9c0.1-0.1,0.1-0.2,0.1-0.2c0.1-0.2-0.1-0.2-0.4-0.3
		c-0.4-0.2-2.1-1.4-4.1-4.7c-0.1-0.1-0.1-0.2-0.2-0.4c0,0,0,0,0-0.1l0,0c-0.2-0.5-0.5-1-0.8-1.6c-1.4-2.9-1.6-5.1-0.7-6.9
		c0,0,0,0,0-0.1l0,0l0,0l0,0c0.1-0.2,0.2-0.3,0.4-0.4c0.1-0.1,0.2-0.2,0.3-0.3l0,0c1.2-1.1,3-1.6,4.1-1.9c0.5-0.1,0.9-0.2,1-0.3
		c0.3-0.2,0.6-0.3,1-0.7l0.8,0.9c0.1,0.2,0.3,0.4,0.4,0.5L228.6,441.3z M243.1,427.5l-0.1-7.6l59-35.1c0.9,1.3,1.7,2.7,2.7,4
		L243.1,427.5z M304.9,538.1l0.1,5c0.4-0.6,0.7-1.1,1-1.5s0.6-0.9,0.8-1.3c0.3-0.4,0.6-0.9,1-1.5l-4.4-2.2l2.7-4l3.6,3.4l2.7-4.2
		l4.2,2.9l-3.4,4.6l4,3.7l-0.2,0.4l-4.9-2.5l-0.9,1.2l2,6.6l-5,2.9l2.5-8.8L299.6,558l-3-2l8.2-12.6l-9,3.7l-0.3-0.4L304.9,538.1z
		 M285.6,561.4l3.4,2.8l0.2-3.3l-1.7-0.8l2.3-3.3l3.7,3.3l0.7-1.9l4.3,2.9l-2,1.7l3.9,3.5l-0.2,0.3l-10.1-5l3.4,3.5h-3.7l2.6,2.1
		l3.4-2.5l2.8,3.8l-5.5-0.7l4.6,3.7l-0.3,0.4l-14-6.8L285.6,561.4z M284.3,565.6l4.1,2.8l-0.8,1.1l8.1,2.6l-11.2,14.8l-3.7-6.4
		l0.2-0.4l3,1.4l1.8-2.8l-4.2-1.2l-3.3,4.4l-3.1-2.1L284.3,565.6z M271.5,583.1l0.5-0.1l3.5,7.5l-5.8,1L271.5,583.1z M241.7,625.7
		l3.1,1.5l4.8-7.5l-2.4-0.8l2.7-4l1.7,1.7l3.7-5.8l4.2,2.9l-4.7,6.2l1.9,1.8l-0.2,0.4l-2.6-0.9l-5.8,7.7l3,1.5l-0.1,0.3l-10.9,0.1
		L241.7,625.7z M255.2,630.7l2.1,3.9l-10.3-1.3V633L255.2,630.7z M270.2,636.1l-14.5-8.1l3.4,2.9l-3.1-0.6l12.2,6.4l-9.9,9.9
		l-4.8-7.2l0.2-0.4l4.8,1.7l1.7-1.9l-15-1.7l-0.1-0.4l13.1-2l2.3,3.6l1-1.2l-6.9-7.1l-5.4-1v-0.4l5.2-1.3l-2.1-1.2l2.2-3.2
		l15.8,12.7L270.2,636.1z M268,632.2l-3.1-2.1l0.8-1.3l-9.4-4.7l5-9.2l4.4,3l-1,1.2l10.5,5L268,632.2z M278.7,620.8l-13.1-9.5
		l-1.2-5.7l-1.7-1.2l-5.2,2.5l1-5.5l3.4,1.7l4.8-7.5l-1.9-3.8l0.2-0.3l8.5,3.2l-8.1,10.3l3.1,3.2l14.4,8.6L278.7,620.8z M292.8,602
		l-0.2,0.3l-9.9-5.1l3.6,3.2l-5.2-1l9.1,3.9l-9.6,11.8l-2.9-2l1.1-1.7l-11.3-4.6l7.4-12.5l4.2,2.9l-0.8,1l1.7,0.7l1.4-2.4l-7.2-3.7
		l2.4-3.5l3.8,3l-0.4-4l0.4-0.1l5.5,5.5l-4.3-0.5l3.6,2.8l3.4-2.5l4.1,4.5l-6.7-1.4L292.8,602z M310.6,575l-5.8-5.8l-1.7,2.2
		l1.7,2.5l0.8-1.6l4.1,2.8l-5.1,6.7l-4.6-4.9l-1.5,1.9l5.2,2.4l-1.7,2.4l-3.9-4.4l-1.8,2.2l4.8,1.9l-1.7,2.4l-3.6-3.8l-1.7,2.1
		l5.4,2.3l-1.7,2.4l-4.2-4.2l-1.7,2.2l5.8,2.7l2.5-2.2l0.4,0.2l-2.9,7.1l-11.1-7.2l10.3-15.3l4.4,3l-1,1.2l2.7,0.7l1.3-2.4l-6.5-2.7
		l4.2-7.8l4.4,3l-1.3,1.7l7.6,3.1L310.6,575z M324.2,556.3l-5.3,3.4l1.4-10.9l-11.4,15.3l-3-2.1l15.6-23.7l4.3,3l-5,6.8L324.2,556.3
		z"/>
	<path class="st1" d="M509.8,194.8l-8.6,8.9l-0.5,0.5c-0.1,0.1-0.1,0.1-0.2,0.2c0,0-0.1,0.1-0.2,0.2c-2,1.9-7.3,6.8-15.6,12.8
		c4.9-7.1,7-13.1,7.2-13.6l7.9-14.5C503.2,190.8,506.6,192.7,509.8,194.8L509.8,194.8z"/>
</g>
<path class="st1" d="M134.8,780.6l-27.6,46.8l26.4-47.5c-4.9-2.5-9.7-5.3-14-8.2l-22.8,76.7l56.2-61.1c-5-1.2-9.5-2.6-14.3-4.8
	C137.4,781.9,136.1,781.3,134.8,780.6z"/>
<g>
	<path class="st2" d="M201.4,471.4c-4.8-2.4-13.7-1.7-17.2-1.2c-0.3-2,0-3.7,0.8-5.1c1.8-3,5.8-3.9,5.8-3.9
		C196.2,462.2,199.8,468.1,201.4,471.4z"/>
</g>
<g>
	<polygon class="st3" points="263.5,620.7 268,625.3 269.1,623.6 264.4,619.5 	"/>
	<polygon class="st3" points="261.2,623.6 266.1,628.3 267.6,625.9 262,622.6 	"/>
	<polygon class="st3" points="273,605.8 279.2,610.9 280.9,608.4 273.7,604.8 	"/>
	<polygon class="st3" points="275.3,602.8 281.3,607.8 282.7,605.6 275.9,601.9 	"/>
	<polygon class="st3" points="277.4,599.9 283,605.1 283.9,603.7 278,599 	"/>
	<polygon class="st3" points="289.7,572.5 287.2,570.1 286,571.7 288.4,574.6 	"/>
	<polygon class="st3" points="288,575.2 284.4,573.9 283.3,575.2 286.2,578.1 	"/>
</g>
<g>
	<path class="st2" d="M197,496.3c0,0-11.9-2.2-19.5,5.3l-0.1,0.1l0,0c-0.2-0.4-5.9-9.9,1.8-12.6c0,0,0.2,0,0.5,0.1s0.8,0.2,1.3,0.3
		l0,0C184.8,490.3,193,492.4,197,496.3z"/>
</g>
<g>
	<path class="st2" d="M211.9,536.8c-0.6,6.7-6.7,10.7-10.7,12.7c-2,1-3.6,1.3-3.9,1.2c-0.4-0.1-1.2-0.5-2.5-2.3
		c-0.6-0.9-1.4-2.2-2.3-4c-3.9-8.3,4.1-7.6,4.7-8.1c0.4,0.4,0.7,0.8,1,1.1c2,2,4,2.8,5.8,3C208.7,540.7,211.9,536.8,211.9,536.8z"/>
</g>
<g>
	<path class="st3" d="M417.2,117c-2.6,1-5.5,1.9-7.5,2.5c0.2-2.8,1-8.3,5.8-9.5C415.5,110,415.4,114.7,417.2,117z"/>
</g>
<g>
	<path class="st3" d="M450.6,83.7c0,0-12.7-0.9-13.6,11l-5.1,0.8c-1.9,0-4.4-0.8-6.3-1.5C425.1,89.2,425.9,76.5,450.6,83.7z"/>
</g>
<g>
	<path class="st3" d="M492.6,100.2c0,0-4.5-0.9-9.1,0.8c-2.9,1.1-5.9,3.3-7.7,7.4l-0.7,0.1c-0.1,0-0.2,0-0.3,0l0,0
		c-0.1-0.1-0.3-0.1-0.5-0.2c-0.9-0.4-2.3-1.1-4-2.4l-0.1-0.1c-1.4-1-2.8-2.2-4.1-3.5c-0.3-0.3-0.7-0.6-1-0.9l0,0
		c2.5-2.5,9.9-8.4,20-5.1C487.4,97,489.9,98.2,492.6,100.2z"/>
</g>
<g>
	<g>
		<path class="st3" d="M511.5,84.5c-0.2,0.5-1.2,1.7-1.7,1.8c-0.5,0-6.7,0.3-7.2,0s-2-0.6-2.3-1.5c0,0-1-1.4,3.6-1.7
			c4.6-0.2,5.4-0.2,6.3-0.2C511.1,83,511.7,84.1,511.5,84.5z"/>
	</g>
	<g>
		<path class="st3" d="M532.2,108.9c-16,0.7-16.2-15.3-16.3-16.7s-0.4-1.5-1.1-1.5c-0.8,0-7.6,0.7-7.6,0.7s0,4.8,0,5s4-2,4.9-2.5
			c1-0.5,1.7-0.5,1.7,0.3s-0.1,1.6-0.6,2.2c-0.5,0.6-6.3,3.4-6.3,3.4l0.1,3.6c0.5,0,3.1-1.1,5.2-2.2c2.1-1.1,3.4-0.4,2,1.2
			c-1.4,1.6-11.6,5.5-14.3,6.4c-2.8,0.9-3.1-0.3-3.7-1.2c-0.5-1-0.1-2.4,1.1-2s2.9-0.2,2.9-0.2c0-2.1-2.3-8.5-2.3-8.5
			c1.6-1.3,3.5-0.5,3.5-0.5c0.9,3,1.6,8.5,1.6,8.5c0.6,0.3,1.6-0.5,1.6-0.5c0-1-0.3-12.6-0.3-12.6s-3.5,0.5-4.1,0.5
			c-0.6,0-1.7-0.9-2.2-1.5s-0.5-1.8,0.3-2.1s16.9-1.1,16.9-1.1c0-1-0.1-1.9-0.2-2.9c-0.1-0.9-0.4-1-1-1.5s-0.4-0.8,0.3-1.3
			c0.7-0.6,0.9-0.2,0.9-0.2c0.9,0.5,3.3,1,3.3,1.7s0,4.6,0,4.6c1,0.1,2.4-0.3,3.1-0.3c0.8,0,1.3,0.8,1.3,1.2s-1.6,1.8-2.1,2.1
			s-2.4-0.1-2.4-0.1c0.6,9.1,3.1,11.2,6.1,13.3s4.1,0.8,4.1-0.7c0-1.4-3.6-5-3.8-5.2c2.5,1.3,8.3,7.1,8.7,7.8
			C534.2,106.9,533.2,108.9,532.2,108.9z"/>
	</g>
	<g>
		<path class="st3" d="M529.5,86.4c-0.1,2.8-2.2,4-3.5,4.7s-1.3-0.3-1-0.9s1.2-0.7,1.2-2.9s-1.6-4.6-1.6-4.6s0-0.4,0.6-0.3
			C527.5,82.7,529.5,84.8,529.5,86.4z"/>
	</g>
	<g>
		<path class="st3" d="M511,111.6c-0.8,0-2.3,0.2-3,0.5s-1.6,0-1.6,0c-0.1,0-1.5-0.3-1.8-0.9c-0.3-0.5-0.5-1,0.8-1.6
			c1.2-0.6,2.2-0.3,3.4-0.3s1.9,0.4,2.2,0.7s0.4,0.3,0.6,0.6C511.7,111,511.8,111.6,511,111.6z"/>
	</g>
	<g>
		<path class="st3" d="M509.3,115.9c-0.8,0.3-4.5,0.1-4.5,0.1s-0.3,2,0,3.2s2,2.4,2.3,2.9s0.5,1.5-0.2,1.4s-2.3-1.3-2.3-1.3
			c0.1,0.3,0.2,5.1,0,5.8c-0.2,0.7-2,3.5-2.9,4.2c-0.8,0.7-1.3,0-1.3-0.8s0.7-2.7,1.1-3.8c0.4-1,0.4-4.2,0.4-4.2s-0.5-0.3-1.1,0.1
			c-0.6,0.4-1.2,1-1.9,1.1c-0.6,0.1-1.7-0.5-1.1-0.8s0.3-0.1,2.3-1.9c2-1.7,2.6-5.2,2.4-5.8c-0.2-0.6-2.6,0-3.2,0
			c-0.7,0-0.5-0.4-1.1-0.8c-0.6-0.4-0.4-1,0.2-1.3s6.3-0.8,6.6-0.9c0,0,1.4,0.2,3,0.4s2.2,0.5,2.4,1.1
			C510.7,115.2,510.1,115.6,509.3,115.9z"/>
	</g>
	<g>
		<path class="st3" d="M527.4,116.1c-0.4-0.9-0.3-2.4,0.2-3.2s-0.1-0.7-1.2-0.7c-1.2,0-3.5,0.4-4.1,0s-0.4-1.6-0.5-1.9
			c-0.1-0.3-0.6-1.8-2.2-2c-0.6,0-0.5,1.9-0.6,2.9s-0.7,1-0.7,1s-4.5-0.1-4.9,0c-0.5,0-0.5,0-0.7,1.5s-0.5,7.4-0.1,8.4
			c0.3,1,0.8,0.4,1.1,0s0.7-1.5,1-1.5c0.4-0.1,3.6-0.1,3.9-0.1s0.2,1.6,0.4,4.7c0.1,3.1,0.8,5.9,1.4,7.5c0.6,1.5,1.3,3.2,1.6,1.1
			c0.3-2.1-0.3-6.6-0.5-7.4c-0.2-0.7-0.5-5.4,0.1-6.3c0,0,2.8,0.3,3.6,0.8c0.8,0.6,1,0.7,1.1,1.3s1.2,0.6,1.4-1
			C528,119.6,527.8,117,527.4,116.1z M518.3,118.3h-3c-1.1,0-0.5-0.4,0.2-1c0,0,2.5,0.1,2.7,0C518.5,117.1,519.2,118.3,518.3,118.3z
			 M518.2,115.5c-0.4,0.2-3.5,0.1-3.6-0.2s0.5-1.3,0.8-1.4c0.9-0.3,3.6,0.3,3.6,0.3S518.6,115.2,518.2,115.5z M522,114.1
			c0,0,2.1,0,2.5,0s0.8,0.6,0.8,0.6s-0.3,0.4-0.7,0.6c-0.4,0.2-2.7,0.1-3.1,0C520.8,115.2,522,114.1,522,114.1z M524.9,118
			c-0.4,0.1-3.4,0.1-3.4-0.1c0-0.3,0.8-0.6,0.8-0.6c1.3-0.4,3.3,0.1,3.3,0.2C525.6,117.6,525.3,117.9,524.9,118z"/>
	</g>
</g>
</svg>
